<?xml version="1.0" standalone="no"?>
<!DOCTYPE svg PUBLIC "-//W3C//DTD SVG 20010904//EN"
 "http://www.w3.org/TR/2001/REC-SVG-20010904/DTD/svg10.dtd">
<svg version="1.0" xmlns="http://www.w3.org/2000/svg"
 width="222.000000pt" height="203.000000pt" viewBox="0 0 222.000000 203.000000"
 preserveAspectRatio="xMidYMid meet">
<metadata>
Created by potrace 1.16, written by Peter Selinger 2001-2019
</metadata>
<g transform="translate(0.000000,203.000000) scale(0.100000,-0.100000)"
fill="#000000" stroke="none">
<path d="M1 1568 c1 -410 3 -455 14 -393 17 92 48 184 92 270 49 96 84 146
166 232 167 176 381 290 627 333 l105 18 -502 1 -503 1 1 -462z"/>
<path d="M1320 2010 c246 -43 460 -157 627 -333 82 -86 117 -136 166 -232 44
-86 75 -178 92 -270 11 -62 13 -17 14 393 l1 462 -502 -1 -503 -1 105 -18z"/>
<path d="M934 1864 c-309 -52 -583 -250 -704 -509 -58 -123 -74 -200 -74 -345
0 -145 16 -222 74 -345 170 -365 612 -580 1047 -510 378 61 680 321 769 660
25 97 25 293 0 390 -118 453 -609 744 -1112 659z m524 -591 c-10 -2 -28 -2
-40 0 -13 2 -5 4 17 4 22 1 32 -1 23 -4z m-515 -266 c7 4 5 -2 -3 -13 -8 -10
-15 -20 -16 -22 -1 -2 -1 10 -1 25 0 15 2 22 4 15 3 -6 10 -9 16 -5z m-103
-97 l0 -51 -22 17 c-13 10 -34 31 -48 48 -17 22 -18 26 -5 15 27 -22 66 -42
64 -32 -3 17 1 53 6 53 3 0 5 -23 5 -50z"/>
<path d="M1 458 l-1 -458 468 1 467 0 -85 19 c-153 32 -318 107 -441 199 -74
56 -190 175 -236 242 -73 106 -134 254 -158 384 -11 62 -13 18 -14 -387z"/>
<path d="M2205 853 c-14 -111 -83 -283 -158 -392 -46 -67 -162 -186 -236 -242
-123 -92 -288 -167 -441 -199 l-85 -19 468 0 467 -1 0 455 c0 250 -2 455 -4
455 -2 0 -7 -25 -11 -57z"/>
</g>
</svg>
