<?xml version="1.0" standalone="no"?>
<!DOCTYPE svg PUBLIC "-//W3C//DTD SVG 20010904//EN"
 "http://www.w3.org/TR/2001/REC-SVG-20010904/DTD/svg10.dtd">
<svg version="1.0" xmlns="http://www.w3.org/2000/svg"
 width="222.000000pt" height="203.000000pt" viewBox="0 0 222.000000 203.000000"
 preserveAspectRatio="xMidYMid meet">
<metadata>
Created by potrace 1.16, written by Peter Selinger 2001-2019
</metadata>
<g transform="translate(0.000000,203.000000) scale(0.100000,-0.100000)"
fill="#000000" stroke="none">
<path d="M904 2001 c-284 -50 -524 -187 -690 -395 -338 -423 -265 -1008 168
-1346 359 -281 860 -328 1276 -122 253 126 452 354 534 615 21 64 23 92 23
262 0 170 -2 198 -23 262 -82 261 -281 489 -534 615 -230 114 -501 153 -754
109z m116 -151 c0 -5 17 -12 38 -16 49 -9 62 -20 62 -54 0 -21 -10 -37 -37
-59 -29 -24 -41 -44 -55 -93 -17 -62 -17 -63 4 -79 14 -11 19 -22 14 -34 -5
-14 -13 -16 -44 -10 -61 11 -63 17 -32 86 11 24 20 61 20 82 0 36 -1 37 -27
31 -48 -11 -68 -30 -82 -78 -12 -40 -11 -49 1 -64 30 -35 29 -54 -4 -123 -32
-66 -61 -91 -72 -62 -3 8 -11 11 -17 8 -6 -4 -7 -14 -4 -24 4 -9 8 -25 9 -35
0 -11 7 -21 13 -24 12 -3 16 4 29 46 3 10 9 10 24 2 26 -14 26 -50 -2 -110
l-22 -47 -50 14 c-28 8 -112 16 -186 19 -74 3 -142 8 -150 10 -26 9 8 21 78
28 35 4 75 11 88 16 24 9 24 11 10 38 -8 16 -26 36 -39 45 -23 15 -53 84 -51
117 2 35 15 46 45 42 l30 -4 -3 54 c-2 36 -9 61 -21 72 -26 26 -21 36 17 36
27 0 36 5 42 22 4 14 1 25 -10 33 -14 11 -13 13 9 23 20 9 26 8 33 -4 7 -13
12 -12 34 6 14 11 33 20 41 20 7 0 22 9 31 19 9 10 29 21 44 24 15 3 52 12 82
20 66 18 110 21 110 7z m234 -3 c-9 -23 21 -38 70 -34 51 5 53 2 30 -31 -13
-19 -22 -22 -45 -17 -36 8 -40 -15 -6 -38 22 -16 21 -16 -20 -16 -24 -1 -46 5
-50 12 -4 7 -20 18 -34 24 -20 8 -28 20 -30 45 -7 60 -2 68 46 68 33 0 43 -3
39 -13z m86 -186 c0 -12 -20 -25 -27 -18 -7 7 6 27 18 27 5 0 9 -4 9 -9z
m-841 -24 c0 -8 -2 -8 -6 1 -4 10 -8 10 -21 0 -15 -12 -16 -11 -3 4 14 19 32
15 30 -5z m1211 -22 c100 -27 145 -51 180 -97 26 -34 14 -38 -64 -21 -69 14
-90 5 -61 -27 14 -16 31 -20 77 -20 34 0 57 4 53 9 -3 5 -1 12 4 15 9 6 71
-49 71 -63 0 -5 -18 -21 -41 -37 -23 -15 -36 -30 -29 -32 6 -2 15 -15 20 -28
5 -13 15 -23 22 -22 7 2 12 -2 13 -9 0 -7 9 -19 20 -27 11 -8 18 -16 15 -19
-3 -2 -35 -7 -72 -10 -46 -4 -71 -2 -80 6 -17 16 -36 14 -76 -6 -32 -18 -32
-17 -44 8 -9 20 -9 34 1 62 13 34 12 36 -15 58 -28 22 -28 24 -17 66 14 53 4
69 -42 69 -19 0 -35 5 -37 12 -6 17 -28 0 -28 -21 0 -24 31 -52 37 -33 9 26
31 11 37 -25 14 -82 13 -86 -21 -96 -28 -9 -35 -7 -53 14 -15 18 -19 33 -14
60 4 25 1 39 -10 49 -9 7 -16 21 -16 32 0 11 -5 28 -10 39 -7 13 -7 19 0 19 5
0 10 -4 10 -10 0 -15 16 -12 34 6 9 8 20 12 26 9 5 -3 10 0 10 8 0 8 -8 14
-17 13 -10 0 -19 7 -21 18 -2 11 -13 27 -24 36 -19 15 -17 16 39 14 32 -1 87
-10 123 -19z m-494 -32 c-10 -10 -19 5 -10 18 6 11 8 11 12 0 2 -7 1 -15 -2
-18z m-797 -5 c-25 -47 -52 -79 -80 -93 -42 -22 -36 -4 22 59 53 58 78 73 58
34z m1084 -83 c8 -18 -11 -31 -25 -17 -11 11 -3 32 12 32 4 0 10 -7 13 -15z
m-563 -10 c0 -8 -4 -15 -10 -15 -5 0 -10 7 -10 15 0 8 5 15 10 15 6 0 10 -7
10 -15z m565 -235 c22 -8 25 -13 15 -25 -6 -7 -26 -17 -43 -20 -18 -3 -45 -11
-60 -17 -42 -16 -43 -3 -1 36 41 39 49 41 89 26z m235 -79 c0 -28 -59 -40 -67
-14 -3 7 3 10 15 6 11 -2 23 0 26 6 9 13 26 15 26 2z m-460 -66 c10 -12 11
-26 2 -63 -6 -26 -7 -50 -3 -55 4 -4 32 -2 61 4 47 10 55 9 66 -5 10 -14 19
-15 55 -7 71 16 119 20 119 11 0 -9 -51 -28 -97 -36 -15 -2 -49 -13 -75 -24
-26 -11 -59 -25 -73 -30 -23 -9 -25 -13 -15 -25 9 -10 9 -15 1 -15 -6 0 -11 4
-11 9 0 12 -32 23 -39 13 -3 -4 -22 -18 -43 -30 -20 -13 -41 -35 -47 -52 -5
-17 -15 -30 -20 -30 -15 0 -14 23 1 38 22 22 -15 13 -43 -11 -32 -27 -43 -55
-28 -73 7 -8 13 -22 14 -32 2 -28 17 -76 26 -88 5 -6 15 -29 23 -52 14 -37 13
-42 -5 -63 -18 -21 -21 -20 -23 11 -1 10 -13 16 -36 18 l-35 2 28 -17 c36 -23
34 -29 -13 -37 -21 -3 -43 -14 -48 -23 -8 -14 -21 -15 -82 -10 -40 3 -83 13
-97 22 -48 32 -72 -4 -30 -43 21 -20 33 -22 105 -20 45 2 82 7 82 12 0 5 2 7
5 4 3 -2 0 -15 -7 -29 l-11 -24 -101 12 c-56 6 -122 12 -148 12 -26 1 -66 8
-88 17 -46 18 -55 15 -45 -15 11 -37 43 -44 198 -46 120 -1 151 -5 164 -18 10
-9 13 -22 9 -34 -7 -16 -9 -16 -19 -2 -9 12 -40 18 -127 24 -287 19 -283 19
-320 45 -61 42 -171 153 -211 211 l-38 57 157 30 c86 17 254 46 372 64 l215
33 -402 5 c-221 3 -404 7 -406 10 -3 3 -13 34 -22 69 -21 82 -29 185 -18 234
7 35 10 37 27 24 15 -11 17 -17 7 -35 -11 -20 -9 -22 16 -22 15 0 62 5 103 11
41 6 183 23 315 38 210 25 243 27 267 15 32 -17 50 -45 39 -63 -4 -6 -28 -18
-52 -25 -68 -21 -152 -56 -169 -71 -8 -7 -32 -18 -52 -24 -20 -7 -39 -20 -42
-29 -3 -10 -23 -26 -43 -36 -21 -10 -46 -22 -55 -27 -10 -5 -25 -9 -33 -9 -8
0 -15 -5 -15 -11 0 -14 388 -4 493 12 93 15 83 33 -19 37 -43 2 -80 5 -82 7
-2 2 2 23 9 47 l14 43 105 0 c101 0 105 -1 108 -22 3 -17 -6 -28 -33 -44 -61
-36 -27 -43 66 -15 110 34 114 37 99 67 -7 13 -22 31 -33 40 -21 16 -21 16 8
45 19 19 28 37 27 58 0 16 1 34 4 38 8 13 31 9 44 -7z m-299 -38 c-13 -13 -26
-3 -16 12 3 6 11 8 17 5 6 -4 6 -10 -1 -17z m150 -14 c16 -43 8 -68 -24 -71
-23 -3 -30 2 -41 30 -17 41 -5 68 30 68 17 0 27 -8 35 -27z m486 -5 c-3 -7 -5
-2 -5 12 0 14 2 19 5 13 2 -7 2 -19 0 -25z m203 2 c0 -5 -5 -10 -11 -10 -5 0
-7 5 -4 10 3 6 8 10 11 10 2 0 4 -4 4 -10z m-1074 -145 c-36 -19 -46 -19 -46
0 0 11 11 15 38 15 l37 0 -29 -15z m610 -60 c1 -8 -4 -15 -12 -15 -16 0 -16 2
-8 25 7 17 17 13 20 -10z m114 -8 c0 -5 -4 -5 -10 -2 -5 3 -10 14 -10 23 0 15
2 15 10 2 5 -8 10 -19 10 -23z m560 24 c0 -5 -7 -11 -15 -15 -15 -5 -20 5 -8
17 9 10 23 9 23 -2z m19 -43 c-2 -37 -26 -55 -57 -43 -11 4 -9 11 12 30 30 27
46 32 45 13z m-69 -23 c-16 -19 -41 -20 -34 -1 5 14 34 26 43 19 2 -1 -2 -9
-9 -18z m44 -59 c-3 -9 -10 -16 -15 -16 -6 0 -5 9 1 21 13 24 24 20 14 -5z
m-38 -1 c-11 -8 -25 -15 -30 -15 -6 0 -2 7 8 15 11 8 25 15 30 15 6 0 2 -7 -8
-15z m-56 -49 c0 -3 -7 -3 -15 0 -11 5 -13 2 -9 -10 5 -12 2 -15 -10 -10 -19
7 -19 9 -6 35 10 17 13 18 25 5 8 -8 15 -17 15 -20z m-554 -135 c-14 -26 -14
-30 0 -35 10 -4 13 -13 9 -26 -8 -25 5 -26 33 -1 28 24 28 34 0 27 -13 -3 -17
-3 -10 0 6 3 10 10 6 15 -3 5 -2 9 3 8 4 -1 16 1 26 6 11 5 24 2 36 -9 10 -9
28 -16 42 -16 13 0 20 -4 14 -8 -5 -4 -15 -14 -22 -22 -9 -13 -6 -15 18 -17
26 -2 29 1 24 17 -5 15 0 21 18 25 31 8 81 -17 103 -51 16 -24 16 -26 -10 -52
-33 -35 -33 -45 -1 -30 14 6 25 15 25 20 0 4 8 8 18 8 18 0 42 -18 42 -32 0
-14 -104 -78 -127 -78 -13 0 -23 -4 -23 -10 0 -8 -70 -50 -85 -50 -11 0 -4 24
12 42 14 16 14 18 1 18 -23 0 -41 -26 -34 -48 5 -16 -1 -23 -33 -35 -144 -58
-430 -70 -601 -26 l-95 24 258 3 c213 2 261 5 274 17 8 8 29 15 47 15 29 0 34
4 43 32 7 25 14 32 29 30 16 -2 21 7 31 45 12 54 10 63 -16 63 -11 0 -29 8
-42 19 -20 16 -25 17 -34 4 -9 -12 -14 -12 -36 -1 -22 11 -24 16 -12 26 7 7
13 23 13 37 0 14 12 34 31 49 39 33 43 33 25 -3z m-140 -95 c5 -13 -43 -69
-68 -79 -8 -4 -3 -9 11 -13 20 -6 22 -9 9 -18 -8 -6 -17 -19 -21 -29 -8 -21
-28 -18 -36 4 -3 12 -1 12 14 -1 17 -14 17 -14 7 6 -6 11 -18 26 -26 33 -13
11 -12 16 2 42 9 16 29 35 45 42 15 6 27 15 27 19 0 14 30 9 36 -6z m34 -77
c0 -22 0 -22 35 -9 20 8 26 7 23 -2 -3 -7 -13 -14 -24 -16 -52 -8 -63 -13 -66
-34 -2 -12 -9 -23 -15 -26 -16 -5 -17 30 -1 46 9 9 9 18 0 36 -9 21 -8 25 6
29 26 5 42 -3 42 -24z m40 7 c0 -2 -7 -6 -15 -10 -8 -3 -15 -1 -15 4 0 6 7 10
15 10 8 0 15 -2 15 -4z m-386 -105 c9 -14 -63 -38 -118 -40 -26 -1 -52 -3 -56
-6 -5 -3 -34 5 -67 17 l-58 23 75 6 c126 9 219 9 224 0z"/>
<path d="M1000 1780 c0 -5 5 -10 10 -10 6 0 10 5 10 10 0 6 -4 10 -10 10 -5 0
-10 -4 -10 -10z"/>
<path d="M785 1730 c3 -5 8 -10 11 -10 2 0 4 5 4 10 0 6 -5 10 -11 10 -5 0 -7
-4 -4 -10z"/>
<path d="M632 1489 c-19 -7 -22 -15 -20 -54 0 -25 5 -45 10 -45 5 0 6 -9 3
-20 -5 -15 -2 -20 11 -20 10 0 25 -7 35 -16 10 -9 24 -14 31 -11 8 3 0 17 -26
41 l-39 37 22 20 c24 23 26 38 9 61 -10 12 -19 14 -36 7z"/>
<path d="M1748 1399 c-25 -43 -22 -52 10 -35 18 9 33 11 43 5 28 -18 30 -8 3
26 -14 19 -29 35 -33 35 -3 0 -14 -14 -23 -31z"/>
</g>
</svg>
