<?xml version="1.0" standalone="no"?>
<!DOCTYPE svg PUBLIC "-//W3C//DTD SVG 20010904//EN"
 "http://www.w3.org/TR/2001/REC-SVG-20010904/DTD/svg10.dtd">
<svg version="1.0" xmlns="http://www.w3.org/2000/svg"
 width="222.000000pt" height="203.000000pt" viewBox="0 0 222.000000 203.000000"
 preserveAspectRatio="xMidYMid meet">
<metadata>
Created by potrace 1.16, written by Peter Selinger 2001-2019
</metadata>
<g transform="translate(0.000000,203.000000) scale(0.100000,-0.100000)"
fill="#000000" stroke="none">
<path d="M1 1563 c1 -415 2 -460 14 -393 52 304 254 568 550 719 337 171 751
173 1093 3 279 -139 497 -410 552 -687 4 -23 8 148 9 393 l1 432 -1110 0
-1110 0 1 -467z"/>
<path d="M910 1843 c-30 -8 -67 -17 -82 -20 -15 -3 -35 -14 -44 -24 -9 -10
-24 -19 -31 -19 -8 0 -27 -9 -41 -20 -22 -18 -27 -19 -34 -6 -7 12 -13 13 -33
4 -22 -10 -23 -12 -9 -23 11 -8 14 -19 10 -33 -6 -17 -15 -22 -42 -22 -38 0
-43 -10 -17 -36 12 -11 19 -36 21 -72 l3 -54 -30 4 c-30 4 -43 -7 -45 -42 -2
-33 28 -102 51 -117 13 -9 31 -29 39 -45 14 -27 14 -29 -10 -38 -13 -5 -53
-12 -88 -16 -70 -7 -104 -19 -78 -28 8 -2 76 -7 150 -10 74 -3 158 -11 186
-19 l50 -14 22 47 c28 60 28 96 2 110 -15 8 -21 8 -24 -2 -13 -42 -17 -49 -29
-46 -6 3 -13 13 -13 24 -1 10 -5 26 -9 35 -3 10 -2 20 4 24 6 3 14 0 17 -8 11
-29 40 -4 72 62 33 69 34 88 4 123 -12 15 -13 24 -1 64 14 48 34 67 82 78 26
6 27 5 27 -31 0 -21 -9 -58 -20 -82 -31 -69 -29 -75 32 -86 31 -6 39 -4 44 10
5 12 0 23 -14 34 -21 16 -21 17 -4 79 14 49 26 69 55 93 27 22 37 38 37 59 0
34 -13 45 -62 54 -21 4 -38 11 -38 16 0 14 -44 11 -110 -7z m110 -63 c0 -5 -4
-10 -10 -10 -5 0 -10 5 -10 10 0 6 5 10 10 10 6 0 10 -4 10 -10z m-340 -327
c0 -7 -10 -21 -21 -32 l-22 -20 39 -37 c26 -24 34 -38 26 -41 -7 -3 -21 2 -31
11 -10 9 -25 16 -35 16 -13 0 -16 5 -11 20 3 11 2 20 -3 20 -5 0 -10 20 -10
45 -2 39 1 47 20 54 24 10 48 -9 48 -36z"/>
<path d="M1168 1843 c-8 -44 4 -85 31 -96 14 -6 30 -17 34 -24 4 -7 26 -13 50
-12 41 0 42 0 20 16 -34 23 -30 46 6 38 23 -5 32 -2 45 17 23 33 21 36 -30 31
-49 -4 -79 11 -70 34 4 10 -6 13 -39 13 -33 0 -44 -4 -47 -17z"/>
<path d="M1315 1659 c-4 -6 -5 -13 -2 -16 7 -7 27 6 27 18 0 12 -17 12 -25 -2z"/>
<path d="M469 1642 c-13 -15 -12 -16 3 -4 13 10 17 10 21 0 4 -9 6 -9 6 -1 2
20 -16 24 -30 5z"/>
<path d="M1548 1620 c11 -9 22 -25 24 -36 2 -11 11 -18 21 -18 9 1 17 -5 17
-13 0 -8 -5 -11 -10 -8 -6 3 -17 -1 -26 -9 -18 -18 -34 -21 -34 -6 0 6 -5 10
-10 10 -7 0 -7 -6 0 -19 5 -11 10 -28 10 -39 0 -11 7 -25 16 -32 11 -10 14
-24 10 -49 -5 -27 -1 -42 14 -60 18 -21 25 -23 53 -14 34 10 35 14 21 96 -6
36 -28 51 -37 25 -6 -19 -37 9 -37 33 0 21 22 38 28 21 2 -7 18 -12 37 -12 46
0 56 -16 42 -69 -11 -42 -11 -44 17 -66 27 -22 28 -24 15 -58 -10 -28 -10 -42
-1 -62 12 -25 12 -26 44 -8 40 20 59 22 76 6 9 -8 34 -10 80 -6 37 3 69 8 72
10 3 3 -4 11 -15 19 -11 8 -20 20 -20 27 -1 7 -6 11 -13 9 -7 -1 -17 9 -22 22
-5 13 -14 26 -20 28 -7 2 6 17 29 32 23 16 41 32 41 37 0 14 -62 69 -71 63 -5
-3 -7 -10 -4 -15 4 -5 -19 -9 -53 -9 -46 0 -63 4 -77 20 -29 32 -8 41 61 27
34 -7 66 -11 73 -9 24 8 -44 74 -104 101 -45 19 -154 43 -208 45 -56 2 -58 1
-39 -14z m256 -225 c27 -34 25 -44 -3 -26 -10 6 -25 4 -43 -5 -15 -8 -28 -10
-28 -5 0 13 34 71 41 71 4 0 19 -16 33 -35z"/>
<path d="M1206 1601 c-4 -7 -5 -15 -2 -18 9 -9 19 4 14 18 -4 11 -6 11 -12 0z"/>
<path d="M361 1544 c-28 -30 -51 -60 -51 -65 0 -16 58 19 78 48 60 87 45 96
-27 17z"/>
<path d="M1474 1499 c-8 -14 11 -33 25 -25 11 7 4 36 -9 36 -5 0 -12 -5 -16
-11z"/>
<path d="M920 1485 c0 -8 5 -15 10 -15 6 0 10 7 10 15 0 8 -4 15 -10 15 -5 0
-10 -7 -10 -15z"/>
<path d="M1416 1224 c-42 -39 -41 -52 1 -36 15 6 42 14 60 17 17 3 37 13 43
20 10 12 7 17 -15 25 -40 15 -48 13 -89 -26z"/>
<path d="M1714 1169 c-3 -6 -15 -8 -26 -6 -12 4 -18 1 -15 -6 8 -26 67 -14 67
14 0 13 -17 11 -26 -2z"/>
<path d="M1236 1112 c-3 -4 -4 -22 -4 -38 1 -21 -8 -39 -27 -58 -29 -29 -29
-29 -8 -45 11 -9 26 -27 33 -40 15 -30 11 -33 -99 -67 -93 -28 -127 -21 -66
15 27 16 36 27 33 44 -3 21 -7 22 -108 22 l-105 0 -14 -43 c-7 -24 -11 -45 -9
-47 2 -2 39 -5 82 -7 102 -4 112 -22 19 -37 -105 -16 -493 -26 -493 -12 0 6 7
11 15 11 8 0 23 4 33 9 9 5 34 17 55 27 20 10 40 26 43 36 3 9 22 22 42 29 20
6 44 17 52 24 17 15 101 50 169 71 24 7 48 19 52 25 11 18 -7 46 -39 63 -24
12 -57 10 -267 -15 -132 -15 -274 -32 -315 -38 -41 -6 -88 -11 -103 -11 -25 0
-27 2 -16 22 10 18 8 24 -7 35 -17 13 -20 11 -27 -24 -11 -49 -3 -152 18 -234
9 -35 19 -66 22 -69 2 -3 185 -7 406 -10 l402 -5 -215 -33 c-118 -18 -286 -47
-372 -64 l-157 -30 38 -57 c40 -58 150 -169 211 -211 37 -26 33 -26 320 -45
87 -6 118 -12 127 -24 10 -14 12 -14 19 2 4 12 1 25 -9 34 -13 13 -44 17 -164
18 -155 2 -187 9 -198 46 -10 30 -1 33 45 15 22 -9 62 -16 88 -17 26 0 92 -6
148 -12 l101 -12 11 24 c7 14 10 27 7 29 -3 3 -5 1 -5 -4 0 -5 -37 -10 -82
-12 -72 -2 -84 0 -105 20 -42 39 -18 75 30 43 14 -9 57 -19 97 -22 61 -5 74
-4 82 10 5 9 27 20 48 23 47 8 49 14 13 37 l-28 17 35 -2 c23 -2 35 -8 36 -18
2 -31 5 -32 23 -11 18 21 19 26 5 63 -8 23 -18 46 -23 52 -9 12 -24 60 -26 88
-1 10 -7 24 -14 32 -15 18 -4 46 28 73 28 24 65 33 43 11 -15 -15 -16 -38 -1
-38 5 0 15 13 20 30 6 17 27 39 47 52 21 12 40 26 43 30 7 10 39 -1 39 -13 0
-5 5 -9 11 -9 8 0 8 5 -1 15 -10 12 -8 16 15 25 14 5 47 19 73 30 26 11 60 22
75 24 46 8 97 27 97 36 0 9 -48 5 -119 -11 -36 -8 -45 -7 -55 7 -11 14 -19 15
-66 5 -29 -6 -57 -8 -61 -4 -4 5 -3 29 3 55 9 37 8 51 -2 63 -13 16 -36 20
-44 7z"/>
<path d="M965 1079 c-10 -15 3 -25 16 -12 7 7 7 13 1 17 -6 3 -14 1 -17 -5z"/>
<path d="M1061 1062 c-6 -12 -5 -28 5 -50 11 -28 18 -33 41 -30 32 3 40 28 24
71 -12 32 -55 37 -70 9z"/>
<path d="M1612 1060 c0 -14 2 -19 5 -12 2 6 2 18 0 25 -3 6 -5 1 -5 -13z"/>
<path d="M1 468 l-1 -468 1110 0 1110 0 -1 433 c-1 244 -5 415 -9 392 -67
-337 -361 -645 -725 -758 -101 -32 -270 -57 -379 -57 -104 0 -286 31 -385 65
-372 127 -646 431 -706 785 -12 67 -13 22 -14 -392z"/>
<path d="M700 905 c0 -19 10 -19 46 0 l29 15 -37 0 c-27 0 -38 -4 -38 -15z"/>
<path d="M1336 855 c-8 -23 -8 -25 8 -25 8 0 13 7 12 15 -3 23 -13 27 -20 10z"/>
<path d="M1450 858 c0 -9 5 -20 10 -23 13 -8 13 5 0 25 -8 13 -10 13 -10 -2z"/>
<path d="M2007 863 c-12 -12 -7 -22 8 -17 8 4 15 10 15 15 0 11 -14 12 -23 2z"/>
<path d="M2004 805 c-21 -19 -23 -26 -12 -30 31 -12 55 6 57 43 1 19 -15 14
-45 -13z"/>
<path d="M1968 813 c-20 -5 -33 -33 -14 -33 13 0 42 28 35 33 -2 2 -11 2 -21
0z"/>
<path d="M2010 741 c-6 -12 -7 -21 -1 -21 10 0 24 30 17 37 -2 3 -9 -5 -16
-16z"/>
<path d="M1964 735 c-10 -8 -14 -15 -8 -15 5 0 19 7 30 15 10 8 14 15 8 15 -5
0 -19 -7 -30 -15z"/>
<path d="M1890 701 c-13 -26 -13 -28 6 -35 12 -5 15 -2 10 10 -4 12 -2 15 9
10 19 -7 19 1 0 20 -12 13 -15 12 -25 -5z"/>
<path d="M1351 554 c-19 -15 -31 -35 -31 -49 0 -14 -6 -30 -13 -37 -12 -10
-10 -15 12 -26 22 -11 27 -11 36 1 9 13 14 12 34 -4 13 -11 31 -19 42 -19 26
0 28 -9 16 -63 -10 -38 -15 -47 -31 -45 -15 2 -22 -5 -29 -30 -9 -28 -14 -32
-43 -32 -18 0 -39 -7 -47 -15 -13 -12 -61 -15 -274 -17 l-258 -3 95 -24 c171
-44 457 -32 601 26 32 12 38 19 33 35 -7 22 11 48 34 48 13 0 13 -2 -1 -18
-16 -18 -23 -42 -12 -42 15 0 85 42 85 50 0 6 10 10 23 10 23 0 127 64 127 78
0 14 -24 32 -42 32 -10 0 -18 -4 -18 -8 0 -5 -11 -14 -25 -20 -32 -15 -32 -5
1 30 26 26 26 28 10 52 -22 34 -72 59 -103 51 -18 -4 -23 -10 -18 -25 5 -16 2
-19 -24 -17 -24 2 -27 4 -18 17 7 8 17 18 22 22 6 4 -1 8 -14 8 -14 0 -32 7
-42 16 -12 11 -25 14 -36 9 -10 -5 -22 -7 -26 -6 -5 1 -6 -3 -3 -8 4 -5 0 -12
-6 -15 -7 -3 -3 -3 10 0 28 7 28 -3 0 -27 -28 -25 -41 -24 -33 1 4 13 1 22 -9
26 -14 5 -14 9 0 35 18 36 14 36 -25 3z"/>
<path d="M1200 462 c0 -4 -12 -13 -27 -19 -16 -7 -36 -26 -45 -42 -14 -26 -15
-31 -2 -42 8 -7 20 -22 26 -33 10 -20 10 -20 -7 -6 -15 13 -17 13 -14 1 8 -22
28 -25 36 -4 4 10 13 23 21 29 13 9 11 12 -9 18 -14 4 -19 9 -11 13 25 10 73
66 68 79 -6 15 -36 20 -36 6z"/>
<path d="M1228 403 c-14 -4 -15 -8 -6 -29 9 -18 9 -27 0 -36 -16 -16 -15 -51
1 -46 6 3 13 14 15 26 3 21 14 26 66 34 11 2 21 9 24 16 3 9 -3 10 -23 2 -35
-13 -35 -13 -35 9 0 21 -16 29 -42 24z"/>
<path d="M1280 380 c0 -5 7 -7 15 -4 8 4 15 8 15 10 0 2 -7 4 -15 4 -8 0 -15
-4 -15 -10z"/>
<path d="M700 281 l-75 -6 58 -23 c33 -12 62 -20 67 -17 4 3 30 5 56 6 55 2
127 26 118 40 -5 9 -98 9 -224 0z"/>
</g>
</svg>
