<?xml version="1.0" standalone="no"?>
<!DOCTYPE svg PUBLIC "-//W3C//DTD SVG 20010904//EN"
 "http://www.w3.org/TR/2001/REC-SVG-20010904/DTD/svg10.dtd">
<svg version="1.0" xmlns="http://www.w3.org/2000/svg"
 width="222.000000pt" height="203.000000pt" viewBox="0 0 222.000000 203.000000"
 preserveAspectRatio="xMidYMid meet">
<metadata>
Created by potrace 1.16, written by Peter Selinger 2001-2019
</metadata>
<g transform="translate(0.000000,203.000000) scale(0.100000,-0.100000)"
fill="#000000" stroke="none">
<path d="M1 1568 c1 -425 2 -457 15 -387 75 415 431 749 884 829 l105 18 -502
1 -503 1 1 -462z"/>
<path d="M1320 2010 c245 -43 454 -153 622 -328 139 -145 229 -316 262 -501
13 -70 14 -38 15 387 l1 462 -502 -1 -503 -1 105 -18z"/>
<path d="M1470 1664 c-62 -25 -86 -43 -111 -83 -76 -120 16 -261 171 -261 111
0 200 79 200 178 0 52 -46 123 -96 147 -39 19 -136 30 -164 19z"/>
<path d="M1 463 l-1 -463 503 1 502 1 -105 18 c-245 43 -454 153 -622 328
-139 145 -229 316 -262 501 -13 70 -14 38 -15 -386z"/>
<path d="M2206 862 c-10 -85 -67 -241 -122 -334 -60 -100 -199 -249 -296 -315
-144 -100 -298 -163 -468 -193 l-105 -18 503 -1 502 -1 0 460 c0 253 -2 460
-4 460 -2 0 -6 -26 -10 -58z"/>
</g>
</svg>
