<?xml version="1.0" standalone="no"?>
<!DOCTYPE svg PUBLIC "-//W3C//DTD SVG 20010904//EN"
 "http://www.w3.org/TR/2001/REC-SVG-20010904/DTD/svg10.dtd">
<svg version="1.0" xmlns="http://www.w3.org/2000/svg"
 width="222.000000pt" height="203.000000pt" viewBox="0 0 222.000000 203.000000"
 preserveAspectRatio="xMidYMid meet">
<metadata>
Created by potrace 1.16, written by Peter Selinger 2001-2019
</metadata>
<g transform="translate(0.000000,203.000000) scale(0.100000,-0.100000)"
fill="#000000" stroke="none">
<path d="M1151 1355 c-114 -59 -258 -108 -366 -126 -38 -6 -86 -14 -105 -18
l-35 -7 -3 -103 c-1 -58 1 -108 6 -113 5 -5 31 -12 57 -16 59 -8 63 -19 67
-164 3 -77 7 -100 22 -117 26 -29 77 -36 114 -17 50 26 56 47 42 148 -7 49
-10 91 -7 95 10 9 88 -23 210 -84 59 -30 114 -52 122 -49 23 8 18 620 -5 623
-8 1 -62 -23 -119 -52z m79 -260 l0 -235 -77 39 c-96 47 -208 89 -288 105
l-60 13 -3 76 -3 76 28 6 c104 22 332 109 401 153 1 1 2 -104 2 -233z m-480 0
c0 -63 -1 -65 -25 -65 -24 0 -25 2 -25 65 0 63 1 65 25 65 24 0 25 -2 25 -65z
m135 -158 c1 -1 5 -48 9 -104 5 -93 5 -102 -13 -108 -42 -13 -51 2 -51 85 0
43 -3 92 -7 110 -6 33 -6 33 27 26 19 -3 34 -7 35 -9z"/>
<path d="M1432 1347 c-62 -63 -76 -92 -46 -104 22 -8 146 115 142 142 -5 37
-33 26 -96 -38z"/>
<path d="M1436 1125 c-8 -9 -13 -22 -9 -31 4 -12 23 -14 102 -12 85 3 96 5 99
22 6 28 -15 36 -100 36 -56 0 -81 -4 -92 -15z"/>
<path d="M1380 950 c-23 -14 -3 -53 59 -114 51 -51 62 -57 75 -46 9 7 16 17
16 22 0 12 -109 135 -125 141 -6 3 -18 2 -25 -3z"/>
</g>
</svg>
