<?xml version="1.0" standalone="no"?>
<!DOCTYPE svg PUBLIC "-//W3C//DTD SVG 20010904//EN"
 "http://www.w3.org/TR/2001/REC-SVG-20010904/DTD/svg10.dtd">
<svg version="1.0" xmlns="http://www.w3.org/2000/svg"
 width="222.000000pt" height="203.000000pt" viewBox="0 0 222.000000 203.000000"
 preserveAspectRatio="xMidYMid meet">
<metadata>
Created by potrace 1.16, written by Peter Selinger 2001-2019
</metadata>
<g transform="translate(0.000000,203.000000) scale(0.100000,-0.100000)"
fill="#000000" stroke="none">
<path d="M0 1015 l0 -1015 1110 0 1110 0 0 1015 0 1015 -1110 0 -1110 0 0
-1015z m1288 82 c2 -265 0 -308 -13 -313 -8 -3 -63 19 -122 49 -122 61 -200
93 -210 84 -3 -4 0 -46 7 -95 14 -101 8 -122 -42 -148 -37 -19 -88 -12 -114
17 -15 17 -19 40 -22 117 -4 145 -8 156 -67 164 -26 4 -52 11 -57 16 -5 5 -7
55 -6 113 l3 103 35 7 c19 4 67 12 105 18 108 18 252 67 366 126 57 29 111 53
119 52 13 -2 15 -45 18 -310z m240 288 c4 -27 -120 -150 -142 -142 -30 12 -16
41 46 104 63 64 91 75 96 38z m90 -254 c8 -5 12 -17 10 -27 -3 -17 -14 -19
-99 -22 -79 -2 -98 0 -102 12 -12 31 21 46 101 46 42 0 83 -4 90 -9z m-144
-246 c31 -35 56 -68 56 -73 0 -5 -7 -15 -16 -22 -13 -11 -24 -5 -75 46 -62 61
-82 100 -59 114 20 13 33 4 94 -65z"/>
<path d="M1150 1289 c-67 -34 -249 -98 -323 -114 l-28 -6 3 -76 3 -76 60 -13
c80 -16 192 -58 288 -105 l77 -39 0 235 c0 129 -1 234 -2 233 -2 0 -37 -18
-78 -39z"/>
<path d="M700 1095 c0 -63 1 -65 25 -65 24 0 25 2 25 65 0 63 -1 65 -25 65
-24 0 -25 -2 -25 -65z"/>
<path d="M823 920 c4 -18 7 -67 7 -110 0 -83 9 -98 51 -85 18 6 18 15 13 108
-4 56 -8 103 -9 104 -1 2 -16 6 -35 9 -33 7 -33 7 -27 -26z"/>
</g>
</svg>
