<?xml version="1.0" standalone="no"?>
<!DOCTYPE svg PUBLIC "-//W3C//DTD SVG 20010904//EN"
 "http://www.w3.org/TR/2001/REC-SVG-20010904/DTD/svg10.dtd">
<svg version="1.0" xmlns="http://www.w3.org/2000/svg"
 width="222.000000pt" height="203.000000pt" viewBox="0 0 222.000000 203.000000"
 preserveAspectRatio="xMidYMid meet">
<metadata>
Created by potrace 1.16, written by Peter Selinger 2001-2019
</metadata>
<g transform="translate(0.000000,203.000000) scale(0.100000,-0.100000)"
fill="#000000" stroke="none">
<path d="M1308 1423 c-117 -119 -138 -160 -119 -228 7 -27 6 -38 -5 -49 -23
-23 -17 -39 36 -91 48 -47 50 -48 69 -31 15 14 29 16 63 11 24 -4 56 -2 73 5
37 14 245 219 245 241 0 9 -7 20 -17 23 -12 5 -47 -24 -128 -104 -99 -97 -116
-110 -146 -110 -65 0 -139 75 -139 140 0 36 18 61 117 161 65 66 94 102 91
115 -7 39 -36 22 -140 -83z"/>
<path d="M649 1499 c-31 -31 -20 -83 44 -210 100 -195 255 -409 297 -409 9 0
30 10 45 22 l28 22 26 -31 c14 -17 72 -85 129 -152 121 -142 138 -156 187
-147 46 9 75 47 75 99 0 39 -7 47 -169 211 -93 94 -267 271 -387 394 -123 125
-227 222 -236 222 -10 0 -28 -10 -39 -21z"/>
<path d="M1409 1378 c-79 -84 -93 -111 -62 -122 22 -9 186 154 178 177 -15 38
-38 27 -116 -55z"/>
<path d="M1476 1301 c-76 -79 -92 -112 -55 -119 19 -4 174 153 174 176 0 9 -9
18 -20 20 -15 2 -44 -21 -99 -77z"/>
<path d="M812 786 c-73 -74 -82 -88 -82 -121 0 -50 44 -95 94 -95 31 0 44 10
109 78 161 168 162 170 142 192 -13 15 -22 17 -36 10 -27 -15 -85 -12 -99 5
-23 28 -46 15 -128 -69z"/>
</g>
</svg>
