<?xml version="1.0" standalone="no"?>
<!DOCTYPE svg PUBLIC "-//W3C//DTD SVG 20010904//EN"
 "http://www.w3.org/TR/2001/REC-SVG-20010904/DTD/svg10.dtd">
<svg version="1.0" xmlns="http://www.w3.org/2000/svg"
 width="222.000000pt" height="203.000000pt" viewBox="0 0 222.000000 203.000000"
 preserveAspectRatio="xMidYMid meet">
<metadata>
Created by potrace 1.16, written by Peter Selinger 2001-2019
</metadata>
<g transform="translate(0.000000,203.000000) scale(0.100000,-0.100000)"
fill="#000000" stroke="none">
<path d="M0 1015 l0 -1015 1110 0 1110 0 0 1015 0 1015 -1110 0 -1110 0 0
-1015z m1448 491 c3 -13 -26 -49 -91 -115 -99 -100 -117 -125 -117 -161 0 -65
74 -140 139 -140 30 0 47 13 146 110 81 80 116 109 128 104 10 -3 17 -14 17
-23 0 -22 -208 -227 -245 -241 -17 -7 -49 -9 -73 -5 -34 5 -48 3 -63 -11 -19
-17 -21 -16 -69 31 -53 52 -59 68 -36 91 11 11 12 22 5 49 -19 68 2 109 119
228 104 105 133 122 140 83z m-524 -208 c120 -123 294 -300 387 -394 162 -164
169 -172 169 -211 0 -52 -29 -90 -75 -99 -49 -9 -66 5 -187 147 -57 67 -115
135 -129 152 l-26 31 -28 -22 c-15 -12 -36 -22 -45 -22 -42 0 -197 214 -297
409 -64 127 -75 179 -44 210 11 11 29 21 39 21 9 0 113 -97 236 -222z m601
135 c8 -23 -156 -186 -178 -177 -31 11 -17 38 62 122 78 82 101 93 116 55z
m70 -75 c0 -23 -155 -180 -174 -176 -37 7 -21 40 55 119 55 56 84 79 99 77 11
-2 20 -11 20 -20z m-655 -503 c14 -17 72 -20 99 -5 14 7 23 5 36 -10 20 -22
19 -24 -142 -192 -65 -68 -78 -78 -109 -78 -50 0 -94 45 -94 95 0 33 9 47 82
121 82 84 105 97 128 69z"/>
</g>
</svg>
