<?xml version="1.0" standalone="no"?>
<!DOCTYPE svg PUBLIC "-//W3C//DTD SVG 20010904//EN"
 "http://www.w3.org/TR/2001/REC-SVG-20010904/DTD/svg10.dtd">
<svg version="1.0" xmlns="http://www.w3.org/2000/svg"
 width="161.000000pt" height="136.000000pt" viewBox="0 0 161.000000 136.000000"
 preserveAspectRatio="xMidYMid meet">
<metadata>
Created by potrace 1.16, written by Peter Selinger 2001-2019
</metadata>
<g transform="translate(0.000000,136.000000) scale(0.100000,-0.100000)"
fill="#000000" stroke="none">
<path d="M429 1280 c-37 -3 -74 -12 -84 -20 -10 -8 -21 -14 -24 -12 -3 1 -6
-1 -6 -5 -1 -5 -17 -33 -37 -64 -20 -30 -41 -75 -48 -98 -13 -48 -10 -221 3
-221 5 0 7 -6 5 -12 -3 -7 2 -19 9 -27 8 -7 12 -20 9 -28 -4 -9 -2 -11 6 -7 8
5 9 2 5 -10 -4 -9 -3 -15 2 -12 9 6 38 -53 33 -67 -1 -5 2 -6 8 -2 9 6 14 -8
11 -28 -1 -5 3 -6 8 -2 12 7 33 -29 23 -40 -4 -5 -2 -5 4 -2 11 7 29 -19 25
-36 -1 -5 3 -6 8 -2 12 7 33 -29 23 -40 -4 -5 -2 -5 4 -2 6 3 27 -16 48 -43
21 -27 67 -77 104 -112 37 -34 66 -66 64 -71 -1 -5 1 -6 6 -3 13 8 53 -24 46
-36 -4 -7 -2 -8 5 -4 13 9 64 -28 53 -39 -4 -3 -2 -6 3 -5 21 5 36 0 30 -10
-4 -6 1 -7 11 -3 13 5 15 3 9 -7 -5 -8 -4 -11 3 -7 14 9 43 -3 36 -14 -3 -5 3
-6 12 -2 13 5 15 3 9 -7 -5 -8 -4 -11 2 -7 15 9 75 -17 66 -28 -5 -4 -3 -5 4
-2 11 7 176 -42 181 -54 1 -3 14 -4 27 -1 14 2 25 0 25 -5 0 -6 26 -6 66 -1
37 4 71 5 75 2 5 -3 9 -1 9 4 0 11 81 48 95 44 5 -2 7 0 3 4 -8 8 30 39 47 39
6 0 11 6 11 13 1 6 2 17 3 23 0 5 5 7 11 4 6 -4 7 1 3 11 -3 10 -2 15 3 12 5
-4 10 4 10 15 1 12 5 45 9 73 7 45 5 53 -14 66 -11 8 -18 18 -13 23 4 5 2 5
-5 2 -16 -10 -44 3 -36 16 3 5 1 7 -5 3 -13 -8 -193 79 -184 89 4 5 2 5 -4 2
-6 -4 -25 -2 -42 3 -23 6 -31 5 -29 -3 1 -7 -4 -11 -10 -10 -7 2 -12 0 -11 -5
3 -15 -15 -42 -25 -35 -5 3 -7 1 -4 -4 8 -13 -79 -113 -99 -113 -8 0 -14 3
-14 8 0 4 -11 8 -25 8 -32 2 -156 75 -148 87 3 6 2 7 -4 4 -13 -8 -93 60 -90
76 1 6 -4 11 -11 12 -16 0 -43 35 -37 46 3 4 0 11 -6 15 -8 5 -10 2 -5 -7 4
-8 -2 -3 -13 11 -20 24 -25 36 -22 53 1 5 -3 6 -8 2 -6 -3 -13 6 -17 19 -5 21
2 35 35 72 23 26 41 51 41 56 0 5 4 7 9 3 6 -3 5 9 -1 27 -6 18 -11 41 -11 50
-1 9 -5 14 -9 12 -7 -5 -12 13 -11 43 1 7 -4 10 -10 6 -6 -4 -8 0 -4 11 4 10
3 15 -3 11 -9 -6 -14 10 -13 42 1 7 -2 11 -6 8 -9 -5 -47 95 -42 110 1 5 -1 7
-5 3 -11 -11 -36 30 -28 45 4 6 3 9 -1 5 -10 -10 -56 63 -48 76 4 5 1 6 -5 2
-5 -3 -12 -3 -14 1 -1 5 -33 6 -69 3z"/>
<path d="M760 526 c0 -2 8 -10 18 -17 15 -13 16 -12 3 4 -13 16 -21 21 -21 13z"/>
</g>
</svg>
