<?xml version="1.0" standalone="no"?>
<!DOCTYPE svg PUBLIC "-//W3C//DTD SVG 20010904//EN"
 "http://www.w3.org/TR/2001/REC-SVG-20010904/DTD/svg10.dtd">
<svg version="1.0" xmlns="http://www.w3.org/2000/svg"
 width="222.000000pt" height="203.000000pt" viewBox="0 0 222.000000 203.000000"
 preserveAspectRatio="xMidYMid meet">
<metadata>
Created by potrace 1.16, written by Peter Selinger 2001-2019
</metadata>
<g transform="translate(0.000000,203.000000) scale(0.100000,-0.100000)"
fill="#000000" stroke="none">
<path d="M0 1015 l0 -1015 1110 0 1110 0 0 1015 0 1015 -1110 0 -1110 0 0
-1015z m944 351 c36 -62 66 -125 66 -139 0 -19 -15 -39 -55 -73 -34 -29 -55
-56 -55 -69 0 -54 163 -238 262 -294 29 -17 56 -31 60 -31 3 0 34 28 67 61 51
52 64 60 85 55 39 -10 215 -116 226 -136 15 -28 12 -71 -9 -117 -56 -123 -261
-160 -428 -78 -234 115 -433 325 -507 534 -29 81 -28 231 1 286 39 73 101 114
175 115 l46 0 66 -114z"/>
</g>
</svg>
