<?xml version="1.0" standalone="no"?>
<!DOCTYPE svg PUBLIC "-//W3C//DTD SVG 20010904//EN"
 "http://www.w3.org/TR/2001/REC-SVG-20010904/DTD/svg10.dtd">
<svg version="1.0" xmlns="http://www.w3.org/2000/svg"
 width="222.000000pt" height="203.000000pt" viewBox="0 0 222.000000 203.000000"
 preserveAspectRatio="xMidYMid meet">
<metadata>
Created by potrace 1.16, written by Peter Selinger 2001-2019
</metadata>
<g transform="translate(0.000000,203.000000) scale(0.100000,-0.100000)"
fill="#000000" stroke="none">
<path d="M755 1463 c-44 -23 -74 -53 -98 -98 -29 -55 -30 -205 -1 -286 74
-209 273 -419 507 -534 167 -82 372 -45 428 78 21 46 24 89 9 117 -11 20 -187
126 -226 136 -21 5 -34 -3 -85 -55 -33 -33 -64 -61 -67 -61 -4 0 -31 14 -60
31 -99 56 -262 240 -262 294 0 13 21 40 55 69 40 34 55 54 55 73 0 14 -30 77
-66 139 l-66 114 -46 0 c-26 -1 -60 -8 -77 -17z"/>
</g>
</svg>
