<?xml version="1.0" standalone="no"?>
<!DOCTYPE svg PUBLIC "-//W3C//DTD SVG 20010904//EN"
 "http://www.w3.org/TR/2001/REC-SVG-20010904/DTD/svg10.dtd">
<svg version="1.0" xmlns="http://www.w3.org/2000/svg"
 width="222.000000pt" height="203.000000pt" viewBox="0 0 222.000000 203.000000"
 preserveAspectRatio="xMidYMid meet">
<metadata>
Created by potrace 1.16, written by Peter Selinger 2001-2019
</metadata>
<g transform="translate(0.000000,203.000000) scale(0.100000,-0.100000)"
fill="#000000" stroke="none">
<path d="M0 1015 l0 -1015 1110 0 1110 0 0 1015 0 1015 -1110 0 -1110 0 0
-1015z m1511 185 c30 -79 24 -214 -11 -285 -37 -75 -114 -148 -183 -173 -78
-29 -196 -30 -262 -2 l-47 20 -78 -20 c-43 -11 -83 -20 -88 -20 -9 0 19 117
33 140 3 5 -4 39 -15 74 -12 36 -20 70 -17 78 3 7 6 3 6 -9 1 -12 6 -25 11
-28 6 -3 10 -17 10 -29 0 -13 8 -30 17 -37 14 -12 16 -12 11 1 -17 47 -16 60
2 26 23 -46 24 -58 6 -109 -17 -48 -8 -53 58 -33 45 14 52 14 87 -4 21 -11 68
-23 106 -26 56 -5 78 -2 127 16 72 27 138 86 174 155 23 43 27 62 27 140 0 73
-4 98 -22 131 -12 23 -20 50 -17 60 3 12 -3 27 -15 38 -12 11 -21 24 -21 30 1
24 82 -83 101 -134z m-96 91 c-6 -5 -25 10 -25 20 0 5 6 4 14 -3 8 -7 12 -15
11 -17z m-395 -146 c0 -8 -2 -15 -4 -15 -2 0 -6 7 -10 15 -3 8 -1 15 4 15 6 0
10 -7 10 -15z m-147 -94 c4 -29 2 -40 -4 -30 -8 13 -14 88 -5 78 2 -2 6 -24 9
-48z m265 -34 c82 -59 88 -61 116 -30 l25 27 38 -21 c21 -12 39 -31 41 -41 4
-25 -42 -62 -77 -62 -43 0 -162 68 -203 117 -38 45 -52 77 -23 53 8 -7 15 -19
15 -26 0 -8 4 -14 9 -14 5 0 17 -3 27 -7 15 -6 14 -3 -4 17 -12 13 -21 31 -21
39 1 13 2 13 6 -1 2 -10 25 -33 51 -51z"/>
</g>
</svg>
