<?xml version="1.0" standalone="no"?>
<!DOCTYPE svg PUBLIC "-//W3C//DTD SVG 20010904//EN"
 "http://www.w3.org/TR/2001/REC-SVG-20010904/DTD/svg10.dtd">
<svg version="1.0" xmlns="http://www.w3.org/2000/svg"
 width="222.000000pt" height="203.000000pt" viewBox="0 0 222.000000 203.000000"
 preserveAspectRatio="xMidYMid meet">
<metadata>
Created by potrace 1.16, written by Peter Selinger 2001-2019
</metadata>
<g transform="translate(0.000000,203.000000) scale(0.100000,-0.100000)"
fill="#000000" stroke="none">
<path d="M1410 1334 c0 -6 9 -19 21 -30 12 -11 18 -26 15 -38 -3 -10 5 -37 17
-60 18 -33 22 -58 22 -131 0 -78 -4 -97 -27 -140 -36 -69 -102 -128 -174 -155
-49 -18 -71 -21 -127 -16 -38 3 -85 15 -106 26 -35 18 -42 18 -87 4 -66 -20
-75 -15 -58 33 18 51 17 63 -6 109 -18 34 -19 21 -2 -26 5 -13 3 -13 -11 -1
-9 7 -17 24 -17 37 0 12 -4 26 -10 29 -5 3 -10 16 -11 28 0 12 -3 16 -6 9 -3
-8 5 -42 17 -78 11 -35 18 -69 15 -74 -14 -23 -42 -140 -33 -140 5 0 45 9 88
20 l78 20 47 -20 c66 -28 184 -27 262 2 69 25 146 98 183 173 35 71 41 206 11
285 -19 51 -100 158 -101 134z"/>
<path d="M1390 1311 c0 -10 19 -25 25 -20 1 2 -3 10 -11 17 -8 7 -14 8 -14 3z"/>
<path d="M1006 1145 c4 -8 8 -15 10 -15 2 0 4 7 4 15 0 8 -4 15 -10 15 -5 0
-7 -7 -4 -15z"/>
<path d="M1026 1097 c3 -10 9 -15 12 -12 3 3 0 11 -7 18 -10 9 -11 8 -5 -6z"/>
<path d="M860 1069 c0 -19 4 -41 9 -48 6 -10 8 1 4 30 -7 55 -13 63 -13 18z"/>
<path d="M1081 1069 c0 -8 9 -26 21 -39 18 -20 19 -23 4 -17 -10 4 -22 7 -27
7 -5 0 -9 6 -9 14 0 7 -7 19 -15 26 -29 24 -15 -8 23 -53 41 -49 160 -117 203
-117 35 0 81 37 77 62 -2 10 -20 29 -41 41 l-38 21 -25 -27 c-21 -23 -28 -26
-47 -16 -46 24 -116 80 -120 97 -4 14 -5 14 -6 1z"/>
</g>
</svg>
