<?xml version="1.0" standalone="no"?>
<!DOCTYPE svg PUBLIC "-//W3C//DTD SVG 20010904//EN"
 "http://www.w3.org/TR/2001/REC-SVG-20010904/DTD/svg10.dtd">
<svg version="1.0" xmlns="http://www.w3.org/2000/svg"
 width="222.000000pt" height="203.000000pt" viewBox="0 0 222.000000 203.000000"
 preserveAspectRatio="xMidYMid meet">
<metadata>
Created by potrace 1.16, written by Peter Selinger 2001-2019
</metadata>
<g transform="translate(0.000000,203.000000) scale(0.100000,-0.100000)"
fill="#000000" stroke="none">
<path d="M0 1015 l0 -1015 1110 0 1110 0 0 1015 0 1015 -1110 0 -1110 0 0
-1015z m1295 431 c164 -75 256 -231 242 -413 -15 -201 -170 -357 -367 -370
-178 -13 -336 88 -401 254 -32 81 -32 224 -1 303 45 115 152 212 269 246 73
21 189 12 258 -20z"/>
<path d="M1071 1410 c-161 -34 -285 -206 -267 -373 12 -121 86 -229 193 -282
51 -26 69 -29 143 -29 65 0 96 6 133 22 70 32 140 102 173 175 25 53 29 75 29
147 0 99 -26 168 -90 239 -71 79 -207 123 -314 101z m97 -230 l3 -125 -75 -74
c-51 -50 -79 -72 -90 -68 -28 11 -17 38 44 107 l60 68 0 104 c0 58 3 108 7
112 4 4 16 6 28 4 19 -3 20 -11 23 -128z"/>
</g>
</svg>
