<?xml version="1.0" standalone="no"?>
<!DOCTYPE svg PUBLIC "-//W3C//DTD SVG 20010904//EN"
 "http://www.w3.org/TR/2001/REC-SVG-20010904/DTD/svg10.dtd">
<svg version="1.0" xmlns="http://www.w3.org/2000/svg"
 width="222.000000pt" height="203.000000pt" viewBox="0 0 222.000000 203.000000"
 preserveAspectRatio="xMidYMid meet">
<metadata>
Created by potrace 1.16, written by Peter Selinger 2001-2019
</metadata>
<g transform="translate(0.000000,203.000000) scale(0.100000,-0.100000)"
fill="#000000" stroke="none">
<path d="M1037 1466 c-117 -34 -224 -131 -269 -246 -31 -79 -31 -222 1 -303
103 -263 430 -341 638 -153 110 100 158 265 118 411 -47 175 -189 292 -363
301 -47 2 -96 -2 -125 -10z m249 -87 c73 -34 126 -90 163 -168 22 -47 26 -70
26 -141 0 -72 -4 -94 -29 -147 -33 -73 -103 -143 -173 -175 -37 -16 -68 -22
-133 -22 -74 0 -92 3 -143 29 -201 100 -257 363 -114 536 101 124 259 158 403
88z"/>
<path d="M1117 1304 c-4 -4 -7 -54 -7 -112 l0 -104 -60 -68 c-61 -69 -72 -96
-44 -107 11 -4 39 18 90 68 l75 74 -3 125 c-3 117 -4 125 -23 128 -12 2 -24 0
-28 -4z"/>
</g>
</svg>
