<?xml version="1.0" standalone="no"?>
<!DOCTYPE svg PUBLIC "-//W3C//DTD SVG 20010904//EN"
 "http://www.w3.org/TR/2001/REC-SVG-20010904/DTD/svg10.dtd">
<svg version="1.0" xmlns="http://www.w3.org/2000/svg"
 width="222.000000pt" height="203.000000pt" viewBox="0 0 222.000000 203.000000"
 preserveAspectRatio="xMidYMid meet">
<metadata>
Created by potrace 1.16, written by Peter Selinger 2001-2019
</metadata>
<g transform="translate(0.000000,203.000000) scale(0.100000,-0.100000)"
fill="#000000" stroke="none">
<path d="M0 1015 l0 -1015 1110 0 1110 0 0 1015 0 1015 -1110 0 -1110 0 0
-1015z m1321 393 c12 -13 31 -39 43 -58 l22 -35 92 -5 c144 -8 137 7 137 -310
0 -257 0 -260 -23 -282 l-23 -23 -402 -3 c-221 -1 -412 0 -424 3 -12 3 -32 15
-43 27 -19 21 -20 34 -20 278 0 319 -7 306 170 313 l65 2 26 49 c15 26 33 52
40 57 8 5 83 9 167 9 146 0 154 -1 173 -22z"/>
<path d="M1090 1251 c-111 -36 -172 -119 -173 -236 -2 -253 343 -326 443 -93
26 60 24 151 -3 205 -21 39 -70 89 -109 109 -36 19 -123 27 -158 15z m130 -81
c57 -29 84 -73 88 -145 3 -50 0 -66 -20 -95 -37 -54 -83 -80 -141 -80 -110 0
-182 95 -157 207 25 108 134 162 230 113z"/>
<path d="M1482 1228 c-30 -30 3 -77 40 -57 24 13 23 46 -1 59 -24 13 -24 13
-39 -2z"/>
</g>
</svg>
