<?xml version="1.0" standalone="no"?>
<!DOCTYPE svg PUBLIC "-//W3C//DTD SVG 20010904//EN"
 "http://www.w3.org/TR/2001/REC-SVG-20010904/DTD/svg10.dtd">
<svg version="1.0" xmlns="http://www.w3.org/2000/svg"
 width="222.000000pt" height="203.000000pt" viewBox="0 0 222.000000 203.000000"
 preserveAspectRatio="xMidYMid meet">
<metadata>
Created by potrace 1.16, written by Peter Selinger 2001-2019
</metadata>
<g transform="translate(0.000000,203.000000) scale(0.100000,-0.100000)"
fill="#000000" stroke="none">
<path d="M981 1421 c-7 -5 -25 -31 -40 -57 l-26 -49 -65 -2 c-96 -4 -128 -12
-150 -35 -19 -21 -20 -36 -20 -278 0 -244 1 -257 20 -278 11 -12 31 -24 43
-27 12 -3 203 -4 424 -3 l402 3 23 23 c23 22 23 25 23 282 0 317 7 302 -137
310 l-92 5 -22 35 c-52 82 -46 80 -216 80 -84 0 -159 -4 -167 -9z m267 -185
c39 -20 88 -70 109 -109 27 -54 29 -145 3 -205 -100 -233 -445 -160 -443 93 1
117 62 200 173 236 35 12 122 4 158 -15z m273 -6 c24 -13 25 -46 1 -59 -37
-20 -70 27 -40 57 15 15 15 15 39 2z"/>
<path d="M1085 1176 c-47 -21 -83 -66 -95 -119 -42 -190 189 -288 298 -127 32
46 28 139 -7 188 -44 62 -130 87 -196 58z"/>
</g>
</svg>
