<?xml version="1.0" standalone="no"?>
<!DOCTYPE svg PUBLIC "-//W3C//DTD SVG 20010904//EN"
 "http://www.w3.org/TR/2001/REC-SVG-20010904/DTD/svg10.dtd">
<svg version="1.0" xmlns="http://www.w3.org/2000/svg"
 width="222.000000pt" height="203.000000pt" viewBox="0 0 222.000000 203.000000"
 preserveAspectRatio="xMidYMid meet">
<metadata>
Created by potrace 1.16, written by Peter Selinger 2001-2019
</metadata>
<g transform="translate(0.000000,203.000000) scale(0.100000,-0.100000)"
fill="#000000" stroke="none">
<path d="M1062 1497 c-44 -14 -118 -80 -145 -131 -33 -62 -30 -186 6 -285 47
-129 206 -399 228 -385 16 10 104 145 152 234 146 270 130 467 -45 554 -56 28
-134 33 -196 13z m149 -140 c93 -62 87 -189 -12 -240 -38 -20 -86 -16 -126 10
-79 52 -67 201 20 238 46 20 79 18 118 -8z"/>
<path d="M922 778 c-48 -23 -77 -67 -68 -104 9 -34 63 -71 131 -89 75 -19 252
-20 323 -1 118 32 162 95 112 159 -18 23 -106 66 -113 56 -2 -2 -11 -16 -20
-32 -17 -26 -17 -28 0 -33 42 -13 83 -34 83 -43 0 -5 -21 -18 -47 -28 -72 -27
-302 -26 -358 2 -22 11 -39 25 -39 30 1 6 20 17 42 25 54 20 56 24 37 54 -21
31 -27 31 -83 4z"/>
</g>
</svg>
