<?xml version="1.0" standalone="no"?>
<!DOCTYPE svg PUBLIC "-//W3C//DTD SVG 20010904//EN"
 "http://www.w3.org/TR/2001/REC-SVG-20010904/DTD/svg10.dtd">
<svg version="1.0" xmlns="http://www.w3.org/2000/svg"
 width="222.000000pt" height="203.000000pt" viewBox="0 0 222.000000 203.000000"
 preserveAspectRatio="xMidYMid meet">
<metadata>
Created by potrace 1.16, written by Peter Selinger 2001-2019
</metadata>
<g transform="translate(0.000000,203.000000) scale(0.100000,-0.100000)"
fill="#000000" stroke="none">
<path d="M0 1015 l0 -1015 1110 0 1110 0 0 1015 0 1015 -1110 0 -1110 0 0
-1015z m1258 469 c175 -87 191 -284 45 -554 -48 -89 -136 -224 -152 -234 -22
-14 -181 256 -228 385 -36 99 -39 223 -6 285 27 51 101 117 145 131 62 20 140
15 196 -13z m-253 -710 c19 -30 17 -34 -37 -54 -22 -8 -41 -19 -42 -25 0 -5
17 -19 39 -30 56 -28 286 -29 358 -2 26 10 47 23 47 28 0 9 -41 30 -83 43 -17
5 -17 7 0 33 9 16 18 30 20 32 7 10 95 -33 113 -56 50 -64 6 -127 -112 -159
-71 -19 -248 -18 -323 1 -68 18 -122 55 -131 89 -9 37 20 81 68 104 56 27 62
27 83 -4z"/>
<path d="M1093 1365 c-87 -37 -99 -186 -20 -238 40 -26 88 -30 126 -10 99 51
105 178 12 240 -39 26 -72 28 -118 8z"/>
</g>
</svg>
