<?xml version="1.0" standalone="no"?>
<!DOCTYPE svg PUBLIC "-//W3C//DTD SVG 20010904//EN"
 "http://www.w3.org/TR/2001/REC-SVG-20010904/DTD/svg10.dtd">
<svg version="1.0" xmlns="http://www.w3.org/2000/svg"
 width="222.000000pt" height="203.000000pt" viewBox="0 0 222.000000 203.000000"
 preserveAspectRatio="xMidYMid meet">
<metadata>
Created by potrace 1.16, written by Peter Selinger 2001-2019
</metadata>
<g transform="translate(0.000000,203.000000) scale(0.100000,-0.100000)"
fill="#000000" stroke="none">
<path d="M0 1015 l0 -1015 1110 0 1110 0 0 1015 0 1015 -1110 0 -1110 0 0
-1015z m1280 339 c19 -49 13 -64 -25 -64 -28 0 -35 4 -35 20 0 19 -7 20 -90
20 -83 0 -90 -1 -90 -20 0 -16 -7 -20 -35 -20 -33 0 -35 2 -35 33 0 53 10 57
162 57 l138 0 10 -26z m225 -138 c10 -15 15 -40 13 -63 l-3 -38 -387 -3 -388
-2 0 49 c0 85 -18 81 390 81 l360 0 15 -24z m13 -309 c-2 -112 -7 -159 -17
-170 -12 -15 -51 -17 -369 -17 -317 0 -357 2 -374 17 -16 14 -18 34 -18 170
l0 153 391 0 390 0 -3 -153z"/>
</g>
</svg>
