<?xml version="1.0" standalone="no"?>
<!DOCTYPE svg PUBLIC "-//W3C//DTD SVG 20010904//EN"
 "http://www.w3.org/TR/2001/REC-SVG-20010904/DTD/svg10.dtd">
<svg version="1.0" xmlns="http://www.w3.org/2000/svg"
 width="222.000000pt" height="203.000000pt" viewBox="0 0 222.000000 203.000000"
 preserveAspectRatio="xMidYMid meet">
<metadata>
Created by potrace 1.16, written by Peter Selinger 2001-2019
</metadata>
<g transform="translate(0.000000,203.000000) scale(0.100000,-0.100000)"
fill="#000000" stroke="none">
<path d="M0 1015 l0 -1015 1110 0 1110 0 0 1015 0 1015 -1110 0 -1110 0 0
-1015z m1019 481 c30 -16 68 -61 96 -115 l18 -35 19 37 c10 21 38 57 62 82 33
35 50 45 75 45 97 0 156 -116 89 -176 -20 -19 -19 -19 68 -24 l89 -5 3 -67 3
-68 -191 0 -190 0 0 71 0 70 -27 -3 c-27 -3 -28 -6 -29 -58 -1 -30 -2 -61 -3
-67 -1 -10 -45 -13 -186 -13 l-186 0 3 68 3 67 83 3 83 3 -21 28 c-24 34 -26
71 -5 111 30 57 86 75 144 46z m86 -631 l0 -240 -169 -3 c-129 -2 -171 1 -178
10 -4 7 -8 118 -8 246 l0 232 177 -2 177 -3 1 -240z m405 16 c0 -126 -3 -236
-6 -245 -5 -14 -30 -16 -175 -16 l-169 0 0 245 0 245 175 0 175 0 0 -229z"/>
<path d="M932 1438 c-18 -18 -15 -53 6 -71 20 -19 95 -47 123 -47 19 0 19 2
-2 41 -39 77 -94 110 -127 77z"/>
<path d="M1253 1428 c-23 -25 -63 -89 -63 -100 0 -12 25 -9 77 8 80 27 104 62
65 97 -26 23 -55 21 -79 -5z"/>
</g>
</svg>
