<?xml version="1.0" standalone="no"?>
<!DOCTYPE svg PUBLIC "-//W3C//DTD SVG 20010904//EN"
 "http://www.w3.org/TR/2001/REC-SVG-20010904/DTD/svg10.dtd">
<svg version="1.0" xmlns="http://www.w3.org/2000/svg"
 width="222.000000pt" height="203.000000pt" viewBox="0 0 222.000000 203.000000"
 preserveAspectRatio="xMidYMid meet">
<metadata>
Created by potrace 1.16, written by Peter Selinger 2001-2019
</metadata>
<g transform="translate(0.000000,203.000000) scale(0.100000,-0.100000)"
fill="#000000" stroke="none">
<path d="M912 1494 c-51 -36 -66 -107 -32 -155 l21 -28 -83 -3 -83 -3 -3 -67
-3 -68 186 0 c141 0 185 3 186 13 1 6 2 37 3 67 1 52 2 55 29 58 l27 3 0 -70
0 -71 190 0 191 0 -3 68 -3 67 -89 5 c-87 5 -88 5 -68 24 67 60 8 176 -89 176
-25 0 -42 -10 -75 -45 -24 -25 -52 -61 -62 -82 l-19 -37 -18 35 c-58 112 -140
158 -203 113z m103 -68 c13 -13 33 -42 44 -65 21 -39 21 -41 2 -41 -28 0 -103
28 -123 47 -21 18 -24 53 -6 71 19 19 57 14 83 -12z m317 7 c39 -35 15 -70
-65 -97 -52 -17 -77 -20 -77 -8 0 4 10 23 21 42 47 79 83 97 121 63z"/>
<path d="M750 878 c0 -128 4 -239 8 -246 7 -9 49 -12 178 -10 l169 3 0 240 -1
240 -177 3 -177 2 0 -232z"/>
<path d="M1160 865 l0 -245 169 0 c145 0 170 2 175 16 3 9 6 119 6 245 l0 229
-175 0 -175 0 0 -245z"/>
</g>
</svg>
