<?xml version="1.0" standalone="no"?>
<!DOCTYPE svg PUBLIC "-//W3C//DTD SVG 20010904//EN"
 "http://www.w3.org/TR/2001/REC-SVG-20010904/DTD/svg10.dtd">
<svg version="1.0" xmlns="http://www.w3.org/2000/svg"
 width="222.000000pt" height="203.000000pt" viewBox="0 0 222.000000 203.000000"
 preserveAspectRatio="xMidYMid meet">
<metadata>
Created by potrace 1.16, written by Peter Selinger 2001-2019
</metadata>
<g transform="translate(0.000000,203.000000) scale(0.100000,-0.100000)"
fill="#000000" stroke="none">
<path d="M1002 1441 c-104 -39 -179 -110 -230 -219 -24 -51 -27 -69 -27 -167
0 -98 3 -116 27 -167 74 -158 211 -244 376 -236 146 7 266 88 334 226 31 63
33 72 33 177 0 105 -2 114 -33 178 -41 83 -109 153 -188 191 -79 40 -210 47
-292 17z m281 -31 c75 -35 142 -103 179 -178 31 -63 33 -72 33 -177 0 -105 -2
-114 -33 -177 -37 -75 -104 -142 -179 -179 -41 -21 -63 -24 -153 -24 -90 0
-112 3 -153 24 -309 153 -288 608 34 725 66 24 209 17 272 -14z"/>
<path d="M919 1131 c-24 -24 -29 -38 -29 -76 0 -63 39 -105 98 -105 43 0 87
27 97 61 6 17 14 20 63 17 56 -3 57 -3 60 -36 3 -28 7 -33 25 -30 17 2 23 11
25 36 2 17 7 32 12 32 5 0 10 -15 12 -32 4 -42 41 -48 46 -8 2 14 13 32 24 41
13 10 19 23 15 33 -5 14 -26 16 -141 16 -125 0 -135 1 -141 20 -10 33 -54 60
-97 60 -30 0 -46 -7 -69 -29z m111 -31 c11 -11 20 -31 20 -45 0 -29 -32 -65
-58 -65 -33 0 -62 29 -62 62 0 61 59 89 100 48z"/>
</g>
</svg>
