<?xml version="1.0" standalone="no"?>
<!DOCTYPE svg PUBLIC "-//W3C//DTD SVG 20010904//EN"
 "http://www.w3.org/TR/2001/REC-SVG-20010904/DTD/svg10.dtd">
<svg version="1.0" xmlns="http://www.w3.org/2000/svg"
 width="222.000000pt" height="203.000000pt" viewBox="0 0 222.000000 203.000000"
 preserveAspectRatio="xMidYMid meet">
<metadata>
Created by potrace 1.16, written by Peter Selinger 2001-2019
</metadata>
<g transform="translate(0.000000,203.000000) scale(0.100000,-0.100000)"
fill="#000000" stroke="none">
<path d="M0 1015 l0 -1015 1110 0 1110 0 0 1015 0 1015 -1110 0 -1110 0 0
-1015z m1294 409 c79 -38 147 -108 188 -191 31 -64 33 -73 33 -178 0 -105 -2
-114 -33 -177 -68 -138 -188 -219 -334 -226 -165 -8 -302 78 -376 236 -24 51
-27 69 -27 167 0 98 3 116 27 167 51 109 126 180 230 219 82 30 213 23 292
-17z"/>
<path d="M1011 1424 c-134 -48 -227 -164 -251 -311 -27 -164 64 -339 217 -414
41 -21 63 -24 153 -24 90 0 112 3 153 24 75 37 142 104 179 179 31 63 33 72
33 177 0 105 -2 114 -33 177 -37 75 -104 143 -179 178 -63 31 -206 38 -272 14z
m42 -284 c14 -11 29 -29 32 -40 6 -19 16 -20 141 -20 115 0 136 -2 141 -16 4
-10 -2 -23 -15 -33 -11 -9 -22 -27 -24 -41 -5 -40 -42 -34 -46 8 -2 17 -7 32
-12 32 -5 0 -10 -15 -12 -32 -2 -25 -8 -34 -25 -36 -18 -3 -22 2 -25 30 -3 33
-4 33 -60 36 -49 3 -57 0 -63 -17 -10 -34 -54 -61 -97 -61 -59 0 -98 42 -98
105 0 38 5 52 29 76 36 36 95 40 134 9z"/>
<path d="M947 1102 c-55 -60 26 -149 83 -92 11 11 20 31 20 45 0 54 -69 85
-103 47z"/>
</g>
</svg>
