<?xml version="1.0" standalone="no"?>
<!DOCTYPE svg PUBLIC "-//W3C//DTD SVG 20010904//EN"
 "http://www.w3.org/TR/2001/REC-SVG-20010904/DTD/svg10.dtd">
<svg version="1.0" xmlns="http://www.w3.org/2000/svg"
 width="222.000000pt" height="203.000000pt" viewBox="0 0 222.000000 203.000000"
 preserveAspectRatio="xMidYMid meet">
<metadata>
Created by potrace 1.16, written by Peter Selinger 2001-2019
</metadata>
<g transform="translate(0.000000,203.000000) scale(0.100000,-0.100000)"
fill="#000000" stroke="none">
<path d="M995 1816 c-275 -63 -497 -271 -585 -551 -31 -99 -39 -293 -16 -401
22 -100 99 -260 165 -341 101 -124 259 -224 415 -263 108 -27 274 -27 381 0
192 49 352 161 459 324 96 144 136 275 136 449 0 135 -20 226 -74 342 -98 207
-255 348 -471 421 -68 23 -100 28 -215 30 -90 3 -155 -1 -195 -10z m335 -82
c313 -73 540 -365 541 -694 0 -235 -100 -444 -277 -576 -136 -102 -261 -145
-424 -145 -218 -1 -405 87 -552 260 -176 206 -209 533 -81 786 91 178 272 324
458 369 81 19 254 20 335 0z"/>
<path d="M851 1376 c-212 -212 -292 -298 -288 -310 5 -11 19 -16 52 -16 l45 0
0 -198 c0 -221 2 -227 70 -262 37 -19 60 -20 420 -20 413 0 426 2 468 55 21
26 22 38 22 226 l0 199 50 0 c37 0 52 4 57 16 4 12 -76 98 -288 310 -162 162
-298 294 -304 294 -6 0 -142 -132 -304 -294z"/>
</g>
</svg>
