<?xml version="1.0" standalone="no"?>
<!DOCTYPE svg PUBLIC "-//W3C//DTD SVG 20010904//EN"
 "http://www.w3.org/TR/2001/REC-SVG-20010904/DTD/svg10.dtd">
<svg version="1.0" xmlns="http://www.w3.org/2000/svg"
 width="222.000000pt" height="203.000000pt" viewBox="0 0 222.000000 203.000000"
 preserveAspectRatio="xMidYMid meet">
<metadata>
Created by potrace 1.16, written by Peter Selinger 2001-2019
</metadata>
<g transform="translate(0.000000,203.000000) scale(0.100000,-0.100000)"
fill="#000000" stroke="none">
<path d="M0 1015 l0 -1015 1110 0 1110 0 0 1015 0 1015 -1110 0 -1110 0 0
-1015z m1405 781 c216 -73 373 -214 471 -421 54 -116 74 -207 74 -342 0 -174
-40 -305 -136 -449 -107 -163 -267 -275 -459 -324 -107 -27 -273 -27 -381 0
-156 39 -314 139 -415 263 -66 81 -143 241 -165 341 -23 108 -15 302 16 401
88 280 310 488 585 551 40 9 105 13 195 10 115 -2 147 -7 215 -30z"/>
<path d="M995 1734 c-133 -32 -277 -125 -376 -242 -175 -209 -210 -532 -84
-786 87 -176 278 -328 468 -371 149 -34 340 -14 469 50 250 126 399 371 399
655 -1 329 -228 621 -541 694 -81 20 -254 19 -335 0z m464 -358 c212 -212 292
-298 288 -310 -5 -12 -20 -16 -57 -16 l-50 0 0 -199 c0 -188 -1 -200 -22 -226
-42 -53 -55 -55 -468 -55 -520 0 -490 -17 -490 282 l0 198 -45 0 c-33 0 -47 5
-52 16 -4 12 76 98 288 310 162 162 298 294 304 294 6 0 142 -132 304 -294z"/>
</g>
</svg>
