<?xml version="1.0" standalone="no"?>
<!DOCTYPE svg PUBLIC "-//W3C//DTD SVG 20010904//EN"
 "http://www.w3.org/TR/2001/REC-SVG-20010904/DTD/svg10.dtd">
<svg version="1.0" xmlns="http://www.w3.org/2000/svg"
 width="300.000000pt" height="50.000000pt" viewBox="0 0 300.000000 50.000000"
 preserveAspectRatio="xMidYMid meet">
<metadata>
Created by potrace 1.16, written by Peter Selinger 2001-2019
</metadata>
<g transform="translate(0.000000,50.000000) scale(0.100000,-0.100000)"
fill="#000000" stroke="none">
<path d="M301 454 c-193 -96 -162 -369 48 -431 163 -47 311 60 311 226 -1 95
-56 180 -142 215 -60 25 -155 21 -217 -10z m191 -24 c21 -6 53 -26 73 -44 43
-41 47 -61 8 -42 -104 51 -113 55 -113 42 0 -7 -16 -17 -35 -23 -20 -6 -35 -7
-35 -2 0 10 -31 12 -54 3 -9 -3 -16 -14 -16 -24 0 -10 -6 -20 -14 -23 -33 -13
-25 -117 11 -140 8 -5 11 -18 7 -31 -4 -17 1 -30 15 -43 l21 -20 -22 3 c-13 1
-26 3 -29 3 -12 2 -61 52 -56 57 3 3 -3 14 -14 25 -14 14 -19 33 -19 74 0 53
2 56 61 119 33 36 70 67 82 69 42 8 92 7 129 -3z m-72 -125 c0 -8 -2 -15 -4
-15 -2 0 -6 7 -10 15 -3 8 -1 15 4 15 6 0 10 -7 10 -15z m14 -76 c8 7 17 8 20
3 9 -15 -42 -24 -64 -12 -29 15 -25 22 5 8 18 -8 28 -8 39 1z"/>
<path d="M720 221 c0 -117 2 -141 15 -141 12 0 15 22 17 118 l3 117 38 -117
c23 -73 43 -118 51 -118 12 0 38 64 85 205 7 23 10 4 10 -87 1 -98 4 -118 16
-118 13 0 15 22 15 141 0 139 0 140 -22 137 -19 -3 -27 -20 -57 -115 -19 -62
-37 -113 -41 -113 -4 0 -22 51 -41 113 -33 104 -37 112 -62 115 l-27 3 0 -140z"/>
<path d="M1030 340 c0 -11 7 -20 15 -20 8 0 15 9 15 20 0 11 -7 20 -15 20 -8
0 -15 -9 -15 -20z"/>
<path d="M1110 220 l0 -140 80 0 c64 0 80 3 80 15 0 12 -14 15 -65 15 l-65 0
0 125 c0 104 -2 125 -15 125 -13 0 -15 -22 -15 -140z"/>
<path d="M1930 220 c0 -118 2 -140 15 -140 13 0 15 22 15 140 0 118 -2 140
-15 140 -13 0 -15 -22 -15 -140z"/>
<path d="M1030 185 c0 -87 3 -105 15 -105 12 0 15 18 15 105 0 87 -3 105 -15
105 -12 0 -15 -18 -15 -105z"/>
<path d="M1357 283 c-42 -11 -63 -125 -32 -170 21 -30 74 -39 113 -19 35 18
42 33 42 87 0 84 -46 122 -123 102z m75 -50 c39 -36 13 -123 -38 -123 -34 0
-54 26 -54 70 0 63 50 92 92 53z"/>
<path d="M1574 278 c-21 -10 -44 -65 -44 -106 0 -57 52 -101 104 -88 29 7 56
32 56 52 0 21 -18 17 -30 -6 -26 -48 -100 -11 -100 50 0 60 63 93 94 49 18
-26 39 -16 30 14 -12 44 -61 59 -110 35z"/>
<path d="M1760 284 c-19 -8 -40 -34 -40 -51 0 -18 27 -16 34 2 7 20 70 20 86
0 17 -20 10 -26 -46 -36 -79 -15 -106 -57 -64 -99 24 -24 67 -26 98 -4 20 14
22 14 22 0 0 -9 7 -16 16 -16 14 0 16 12 12 90 -2 50 -9 95 -15 101 -12 12
-81 21 -103 13z m84 -126 c-10 -36 -24 -48 -54 -48 -57 0 -57 53 0 63 57 10
62 8 54 -15z"/>
<path d="M2154 278 c-21 -10 -44 -65 -44 -106 0 -57 52 -101 104 -88 29 7 56
32 56 52 0 21 -18 17 -30 -6 -26 -48 -100 -11 -100 50 0 60 63 93 94 49 18
-26 39 -16 30 14 -12 44 -61 59 -110 35z"/>
<path d="M2324 263 c-30 -32 -38 -62 -30 -107 8 -41 33 -65 78 -72 73 -12 119
73 83 151 -29 59 -90 73 -131 28z m102 -38 c17 -27 14 -76 -7 -102 -32 -38
-99 1 -99 57 0 65 72 96 106 45z"/>
<path d="M2520 185 c0 -87 3 -105 15 -105 12 0 15 15 15 74 0 80 11 100 52 94
22 -3 23 -8 26 -85 2 -65 6 -83 17 -83 12 0 15 15 15 68 0 78 14 106 51 100
23 -3 24 -7 27 -85 2 -67 6 -83 18 -83 14 0 15 14 12 95 -3 101 -10 115 -55
115 -13 0 -31 -8 -40 -17 -17 -17 -19 -17 -35 0 -24 23 -53 22 -78 -3 l-20
-20 0 20 c0 11 -4 20 -10 20 -6 0 -10 -42 -10 -105z"/>
<path d="M2020 100 c0 -13 7 -20 20 -20 13 0 20 7 20 20 0 13 -7 20 -20 20
-13 0 -20 -7 -20 -20z"/>
</g>
</svg>
