<?xml version="1.0" standalone="no"?>
<!DOCTYPE svg PUBLIC "-//W3C//DTD SVG 20010904//EN"
 "http://www.w3.org/TR/2001/REC-SVG-20010904/DTD/svg10.dtd">
<svg version="1.0" xmlns="http://www.w3.org/2000/svg"
 width="300.000000pt" height="50.000000pt" viewBox="0 0 300.000000 50.000000"
 preserveAspectRatio="xMidYMid meet">
<metadata>
Created by potrace 1.16, written by Peter Selinger 2001-2019
</metadata>
<g transform="translate(0.000000,50.000000) scale(0.100000,-0.100000)"
fill="#000000" stroke="none">
<path d="M0 250 l0 -250 1500 0 1500 0 0 250 0 250 -1500 0 -1500 0 0 -250z
m518 214 c145 -60 189 -251 86 -373 -103 -123 -331 -95 -404 50 -83 161 31
339 217 339 35 0 80 -7 101 -16z m291 -221 c19 -62 37 -113 41 -113 4 0 22 51
41 113 30 95 38 112 57 115 22 3 22 2 22 -137 0 -119 -2 -141 -15 -141 -12 0
-15 20 -16 118 0 91 -3 110 -10 87 -47 -141 -73 -205 -85 -205 -8 0 -28 45
-51 118 l-38 117 -3 -117 c-2 -96 -5 -118 -17 -118 -13 0 -15 24 -15 141 l0
140 27 -3 c25 -3 29 -11 62 -115z m251 97 c0 -11 -7 -20 -15 -20 -8 0 -15 9
-15 20 0 11 7 20 15 20 8 0 15 -9 15 -20z m80 -105 l0 -125 65 0 c51 0 65 -3
65 -15 0 -12 -16 -15 -80 -15 l-80 0 0 140 c0 118 2 140 15 140 13 0 15 -21
15 -125z m820 -15 c0 -118 -2 -140 -15 -140 -13 0 -15 22 -15 140 0 118 2 140
15 140 13 0 15 -22 15 -140z m-900 -35 c0 -87 -3 -105 -15 -105 -12 0 -15 18
-15 105 0 87 3 105 15 105 12 0 15 -18 15 -105z m368 99 c30 -8 52 -53 52
-103 0 -54 -7 -69 -42 -87 -39 -20 -92 -11 -113 19 -8 12 -15 41 -15 65 0 87
43 126 118 106z m234 -6 c21 -17 32 -55 18 -63 -7 -4 -18 2 -26 14 -31 44 -94
11 -94 -49 0 -61 74 -98 100 -50 12 23 30 27 30 6 0 -39 -63 -65 -109 -46 -47
19 -61 69 -40 140 16 53 81 79 121 48z m201 -7 c6 -6 13 -51 15 -101 4 -78 2
-90 -12 -90 -9 0 -16 7 -16 16 0 14 -2 14 -22 0 -31 -22 -74 -20 -98 4 -42 42
-15 84 64 99 56 10 63 16 46 36 -16 20 -79 20 -86 0 -7 -18 -34 -20 -34 -2 0
17 21 43 40 51 22 8 91 -1 103 -13z m379 7 c21 -17 32 -55 18 -63 -7 -4 -18 2
-26 14 -31 44 -94 11 -94 -49 0 -61 74 -98 100 -50 12 23 30 27 30 6 0 -39
-63 -65 -109 -46 -47 19 -61 69 -40 140 16 53 81 79 121 48z m171 3 c13 -5 32
-26 42 -46 36 -78 -10 -163 -83 -151 -45 7 -70 31 -78 72 -8 45 0 75 30 107
26 28 49 33 89 18z m127 -11 l0 -20 20 20 c25 25 54 26 78 3 16 -17 18 -17 35
0 9 9 27 17 40 17 45 0 52 -14 55 -115 3 -81 2 -95 -12 -95 -12 0 -16 16 -18
83 -3 78 -4 82 -27 85 -37 6 -51 -22 -51 -100 0 -53 -3 -68 -15 -68 -11 0 -15
18 -17 83 -3 77 -4 82 -26 85 -41 6 -52 -14 -52 -94 0 -59 -3 -74 -15 -74 -12
0 -15 18 -15 105 0 63 4 105 10 105 6 0 10 -9 10 -20z m-480 -170 c0 -13 -7
-20 -20 -20 -13 0 -20 7 -20 20 0 13 7 20 20 20 13 0 20 -7 20 -20z"/>
<path d="M363 433 c-12 -2 -49 -33 -82 -69 -59 -63 -61 -66 -61 -119 0 -41 5
-60 19 -74 11 -11 17 -22 14 -25 -5 -5 44 -55 56 -57 3 0 16 -2 29 -3 l22 -3
-21 20 c-14 13 -19 26 -15 43 4 13 1 26 -7 31 -36 23 -44 127 -11 140 8 3 14
13 14 23 0 10 7 21 16 24 23 9 54 7 54 -3 0 -5 15 -4 35 2 19 6 35 16 35 23 0
13 9 9 113 -42 39 -19 35 1 -8 42 -50 47 -120 63 -202 47z"/>
<path d="M406 305 c4 -8 8 -15 10 -15 2 0 4 7 4 15 0 8 -4 15 -10 15 -5 0 -7
-7 -4 -15z"/>
<path d="M370 235 c0 -2 9 -9 20 -15 22 -12 73 -3 64 12 -3 5 -12 4 -20 -3
-11 -9 -21 -9 -39 -1 -14 7 -25 10 -25 7z"/>
<path d="M1356 234 c-9 -9 -16 -32 -16 -54 0 -44 20 -70 54 -70 32 0 56 31 56
72 0 58 -57 90 -94 52z"/>
<path d="M1790 173 c-57 -10 -57 -63 0 -63 30 0 44 12 54 48 8 23 3 25 -54 15z"/>
<path d="M2336 228 c-34 -48 -8 -118 43 -118 34 0 49 15 57 58 14 68 -63 113
-100 60z"/>
</g>
</svg>
