<?xml version="1.0" standalone="no"?>
<!DOCTYPE svg PUBLIC "-//W3C//DTD SVG 20010904//EN"
 "http://www.w3.org/TR/2001/REC-SVG-20010904/DTD/svg10.dtd">
<svg version="1.0" xmlns="http://www.w3.org/2000/svg"
 width="300.000000pt" height="50.000000pt" viewBox="0 0 300.000000 50.000000"
 preserveAspectRatio="xMidYMid meet">
<metadata>
Created by potrace 1.16, written by Peter Selinger 2001-2019
</metadata>
<g transform="translate(0.000000,50.000000) scale(0.100000,-0.100000)"
fill="#000000" stroke="none">
<path d="M1067 453 c-21 -59 -21 -63 1 -64 9 0 3 -5 -13 -10 -17 -4 -44 -22
-60 -39 -26 -27 -30 -39 -30 -85 0 -46 4 -58 30 -85 16 -17 43 -35 60 -39 17
-6 22 -10 11 -10 -14 -1 -17 -6 -12 -24 8 -32 35 -97 41 -97 6 0 33 65 41 97
5 18 2 23 -12 24 -11 0 -6 4 11 10 17 4 44 22 60 39 26 27 30 39 30 85 0 46
-4 58 -30 85 -16 17 -43 35 -60 39 -16 5 -22 10 -12 10 9 1 17 4 17 9 0 21
-35 102 -45 102 -6 0 -19 -21 -28 -47z"/>
<path d="M1550 250 c0 -216 2 -250 15 -250 13 0 15 34 15 250 0 216 -2 250
-15 250 -13 0 -15 -34 -15 -250z"/>
<path d="M931 379 l31 -61 34 33 35 34 -58 27 c-32 15 -61 27 -66 28 -4 0 7
-28 24 -61z"/>
<path d="M1217 412 l-58 -27 35 -34 34 -33 31 61 c17 33 28 61 24 61 -5 -1
-34 -13 -66 -28z"/>
<path d="M1814 378 c-81 -98 -68 -234 29 -285 53 -27 136 -22 193 13 l49 29
-62 6 c-129 12 -197 108 -168 237 9 41 -6 41 -41 0z"/>
<path d="M871 276 l-63 -22 58 -18 c33 -10 65 -21 72 -23 8 -4 12 8 12 41 0
25 -3 46 -7 45 -5 0 -37 -10 -72 -23z"/>
<path d="M1240 255 c0 -34 4 -46 13 -42 6 2 38 13 70 23 l59 18 -49 17 c-102
34 -93 36 -93 -16z"/>
<path d="M931 131 c-17 -33 -28 -61 -24 -61 5 1 34 13 66 28 l58 27 -35 34
-34 33 -31 -61z"/>
<path d="M1191 157 l-32 -34 61 -26 c34 -15 63 -27 66 -27 2 0 -9 27 -26 60
-17 33 -32 60 -33 60 -2 0 -18 -15 -36 -33z"/>
</g>
</svg>
