<?xml version="1.0" standalone="no"?>
<!DOCTYPE svg PUBLIC "-//W3C//DTD SVG 20010904//EN"
 "http://www.w3.org/TR/2001/REC-SVG-20010904/DTD/svg10.dtd">
<svg version="1.0" xmlns="http://www.w3.org/2000/svg"
 width="300.000000pt" height="50.000000pt" viewBox="0 0 300.000000 50.000000"
 preserveAspectRatio="xMidYMid meet">
<metadata>
Created by potrace 1.16, written by Peter Selinger 2001-2019
</metadata>
<g transform="translate(0.000000,50.000000) scale(0.100000,-0.100000)"
fill="#000000" stroke="none">
<path d="M0 250 l0 -250 545 0 545 0 -20 50 c-24 62 -25 70 -2 71 9 0 3 5 -13
10 -17 4 -44 22 -60 39 -26 27 -30 39 -30 85 0 46 4 58 30 85 16 17 43 35 60
39 16 5 22 10 13 10 -22 1 -22 11 -3 58 8 19 15 39 15 44 0 5 -237 9 -540 9
l-540 0 0 -250z m973 162 l58 -27 -35 -34 -34 -33 -31 61 c-17 33 -28 61 -24
61 5 -1 34 -13 66 -28z m-23 -158 c0 -33 -4 -45 -12 -41 -7 2 -39 13 -72 23
l-58 18 63 22 c35 13 67 23 72 23 4 1 7 -20 7 -45z m23 -156 c-32 -15 -61 -27
-66 -28 -4 0 7 28 24 61 l31 61 34 -33 35 -34 -58 -27z"/>
<path d="M1110 491 c0 -5 7 -25 15 -44 19 -47 19 -57 -2 -58 -10 0 -4 -5 12
-10 17 -4 44 -22 60 -39 26 -27 30 -39 30 -85 0 -46 -4 -58 -30 -85 -16 -17
-43 -35 -60 -39 -16 -5 -22 -10 -12 -10 22 -1 21 -9 -3 -71 l-20 -50 225 0
225 0 0 250 0 250 -220 0 c-121 0 -220 -4 -220 -9z m149 -112 l-31 -61 -34 33
-35 34 58 27 c32 15 61 27 66 28 4 0 -7 -28 -24 -61z m74 -108 l49 -17 -59
-18 c-32 -10 -64 -21 -70 -23 -9 -4 -13 8 -13 42 0 52 -9 50 93 16z m-73 -141
c17 -33 28 -60 26 -60 -3 0 -32 12 -66 27 l-61 26 32 34 c18 18 34 33 36 33 1
0 16 -27 33 -60z"/>
<path d="M1580 250 l0 -250 710 0 710 0 0 250 0 250 -710 0 -710 0 0 -250z
m275 128 c-29 -129 39 -225 168 -237 l62 -6 -49 -29 c-57 -35 -140 -40 -193
-13 -97 51 -110 187 -29 285 35 41 50 41 41 0z"/>
</g>
</svg>
