<?xml version="1.0" standalone="no"?>
<!DOCTYPE svg PUBLIC "-//W3C//DTD SVG 20010904//EN"
 "http://www.w3.org/TR/2001/REC-SVG-20010904/DTD/svg10.dtd">
<svg version="1.0" xmlns="http://www.w3.org/2000/svg"
 width="222.000000pt" height="203.000000pt" viewBox="0 0 222.000000 203.000000"
 preserveAspectRatio="xMidYMid meet">
<metadata>
Created by potrace 1.16, written by Peter Selinger 2001-2019
</metadata>
<g transform="translate(0.000000,203.000000) scale(0.100000,-0.100000)"
fill="#000000" stroke="none">
<path d="M0 1015 l0 -1015 1110 0 1110 0 0 1015 0 1015 -1110 0 -1110 0 0
-1015z m1923 390 l223 -270 -90 -5 -90 -5 -21 -90 c-78 -333 -230 -582 -405
-664 l-55 -26 -389 -3 c-261 -2 -406 1 -443 8 -72 15 -164 79 -231 161 -65 80
-161 272 -201 404 -58 191 -95 416 -107 658 l-7 137 360 0 360 0 6 -157 c13
-326 82 -634 189 -848 l40 -79 36 69 c19 39 38 72 42 75 12 8 60 149 81 240
11 47 22 93 25 103 5 15 -4 17 -93 17 l-98 0 48 43 c27 23 164 156 305 294
257 253 257 253 274 230 9 -12 118 -143 241 -292z"/>
<path d="M146 1573 c29 -554 185 -989 410 -1144 76 -52 129 -59 437 -59 l279
0 -49 36 c-144 107 -241 261 -318 505 -55 174 -105 479 -105 644 0 44 -3 90
-6 103 l-6 22 -324 0 -324 0 6 -107z"/>
<path d="M1404 1416 l-259 -255 71 -1 72 0 -19 -87 c-29 -133 -106 -358 -128
-373 -4 -3 -20 -27 -35 -53 -32 -57 -36 -49 73 -156 210 -204 429 -138 600
181 62 114 124 291 151 430 l11 57 71 3 70 3 -202 245 c-111 135 -205 249
-209 253 -4 4 -124 -107 -267 -247z"/>
</g>
</svg>
