<?xml version="1.0" standalone="no"?>
<!DOCTYPE svg PUBLIC "-//W3C//DTD SVG 20010904//EN"
 "http://www.w3.org/TR/2001/REC-SVG-20010904/DTD/svg10.dtd">
<svg version="1.0" xmlns="http://www.w3.org/2000/svg"
 width="222.000000pt" height="203.000000pt" viewBox="0 0 222.000000 203.000000"
 preserveAspectRatio="xMidYMid meet">
<metadata>
Created by potrace 1.16, written by Peter Selinger 2001-2019
</metadata>
<g transform="translate(0.000000,203.000000) scale(0.100000,-0.100000)"
fill="#000000" stroke="none">
<path d="M1408 1467 c-141 -138 -278 -271 -305 -294 l-48 -43 98 0 c89 0 98
-2 93 -17 -3 -10 -14 -56 -25 -103 -21 -91 -69 -232 -81 -240 -4 -3 -23 -36
-42 -75 l-36 -69 -40 79 c-107 214 -176 522 -189 848 l-6 157 -360 0 -360 0 7
-137 c12 -242 49 -467 107 -658 40 -132 136 -324 201 -404 67 -82 159 -146
231 -161 37 -7 182 -10 443 -8 l389 3 55 26 c175 82 327 331 405 664 l21 90
90 5 90 5 -223 270 c-123 149 -232 280 -241 292 -17 23 -17 23 -274 -230z
m-614 191 c3 -13 6 -59 6 -103 0 -165 50 -470 105 -644 77 -244 174 -398 318
-505 l49 -36 -279 0 c-308 0 -361 7 -437 59 -225 155 -381 590 -410 1144 l-6
107 324 0 324 0 6 -22z m1086 -248 l202 -245 -70 -3 -71 -3 -11 -57 c-27 -139
-89 -316 -151 -430 -136 -254 -308 -351 -479 -271 -49 23 -151 111 -204 176
-17 21 -17 23 10 70 15 26 31 50 35 53 22 15 99 240 128 373 l19 87 -72 0 -71
1 259 255 c143 140 263 251 267 247 4 -4 98 -118 209 -253z"/>
</g>
</svg>
