<?xml version="1.0" encoding="UTF-8" standalone="no"?>

<svg
   version="1.1"
   id="logo"
   width="120"
   height="80"
   viewBox="0 0 60 40"
   sodipodi:docname="MiLocalIconBAS.svg"
   inkscape:version="1.2.1 (9c6d41e410, 2022-07-14)"
   xmlns:inkscape="http://www.inkscape.org/namespaces/inkscape"
   xmlns:sodipodi="http://sodipodi.sourceforge.net/DTD/sodipodi-0.dtd"
   xmlns:xlink="http://www.w3.org/1999/xlink"
   xmlns="http://www.w3.org/2000/svg"
   xmlns:svg="http://www.w3.org/2000/svg">
  <defs
     id="defs740" />


  <g
     inkscape:groupmode="layer"
     inkscape:label="Image"
     id="g742">
    <image
       width="60"
       height="40"
       preserveAspectRatio="none"
       style="image-rendering:optimizeQuality;fill:#decd87"
       id="image744" />
    #l ear border
	<ellipse
       style="fill:#000000"
       id="earleftborder"
       cx="11"
       cy="11"
       rx="9"
       ry="8" />
    #l ear color
	<ellipse
       style="fill:#f2ae42"
       id="earleft"
       cx="11"
	   cy="11"
	   rx="6"
	   ry="6" />
    #l ear inner color
	<ellipse
       style="fill:#FFCFCC"
       id="earleftinner"
       cx="11"
	   cy="11"
	   rx="4"
	   ry="4" />
    #r ear border
	<ellipse
       style="fill:#000000"
       id="earrightborder"
       cx="50"
       cy="11"
       rx="9"
       ry="8" />
    #r ear color
	<ellipse
       style="fill:#f2ae42"
       id="earright"
       cx="50"
	   cy="11"
	   rx="6"
	   ry="6" />
    #r ear inner color
	<ellipse
       style="fill:#FFCFCC"
       id="earrightinner"
       cx="50"
	   cy="11"
	   rx="3"
	   ry="3" />
    #face border
	<ellipse
       style="fill:#000000"
       id="faceborder"
       cx="29"
       cy="22"
       rx="28"
       ry="18.5" />
    #face color
	<ellipse
       style="fill:#f2ae42"
       id="facecolor"
       cx="29"
       cy="22"
       rx="25"
       ry="16" />
    #racoon
    <path d="M 17 20 Q 30 14, 43 20" fill="none" stroke="purple" stroke-width="9.5" />
    <circle cx="17" cy="20" r="4.5" fill="purple" />
    <circle cx="43" cy="20" r="4.5" fill="purple" />
    #eye
	<ellipse
       style="fill:#000000"
       id="facecolor"
       cx="19"
       cy="20"
       rx="3"
       ry="3" />
    #eye
	<ellipse
       style="fill:#000000"
       id="facecolor"
       cx="41"
       cy="20"
       rx="3"
       ry="3" />
    #nose
	<ellipse
       style="fill:#FFCFCC"
       id="facecolor"
       cx="30"
       cy="25"
       rx="3"
       ry="2" />
	#mouth
	<path d="M 21 28.5 A 5 5 0 0 0 29.5 28" fill="none" stroke="black" stroke-width="1"/>
	<path d="M 30 28.5 A 5 5 0 0 0 38.5 28" fill="none" stroke="black" stroke-width="1"/>
  </g>
</svg>
